<svg xmlns="http://www.w3.org/2000/svg" xmlns:xlink="http://www.w3.org/1999/xlink" id="Layer_2" x="0" y="0" version="1.1" viewBox="0 0 710 710" xml:space="preserve" style="enable-background:new 0 0 710 710"><style type="text/css">.st0{fill:none;stroke:#4f4f4f;stroke-miterlimit:10}</style><g><line x1="616.9" x2="702.2" y1="652.2" y2="652.2" class="st0"/><line x1="617.6" x2="701.5" y1="643.6" y2="643.6" class="st0"/><line x1="618.3" x2="700.8" y1="635" y2="635" class="st0"/><line x1="619" x2="700.1" y1="626.4" y2="626.4" class="st0"/><line x1="619.7" x2="699.4" y1="617.7" y2="617.7" class="st0"/><line x1="620.4" x2="698.6" y1="609.1" y2="609.1" class="st0"/><line x1="621.1" x2="697.9" y1="600.5" y2="600.5" class="st0"/><line x1="621.8" x2="697.2" y1="591.9" y2="591.9" class="st0"/><line x1="622.5" x2="696.5" y1="583.3" y2="583.3" class="st0"/><line x1="623.2" x2="695.8" y1="574.6" y2="574.6" class="st0"/><line x1="623.9" x2="695.1" y1="566" y2="566" class="st0"/><line x1="624.6" x2="694.4" y1="557.4" y2="557.4" class="st0"/><line x1="625.4" x2="693.7" y1="548.8" y2="548.8" class="st0"/><line x1="626.1" x2="693" y1="540.2" y2="540.2" class="st0"/><line x1="626.8" x2="692.3" y1="531.5" y2="531.5" class="st0"/><line x1="627.5" x2="691.6" y1="522.9" y2="522.9" class="st0"/><line x1="628.2" x2="690.8" y1="514.3" y2="514.3" class="st0"/><line x1="628.9" x2="690.1" y1="505.7" y2="505.7" class="st0"/><line x1="629.6" x2="689.4" y1="497.1" y2="497.1" class="st0"/><line x1="630.3" x2="688.7" y1="488.5" y2="488.5" class="st0"/><line x1="631" x2="688" y1="479.8" y2="479.8" class="st0"/><line x1="631.7" x2="687.3" y1="471.2" y2="471.2" class="st0"/><line x1="632.4" x2="686.6" y1="462.6" y2="462.6" class="st0"/><line x1="633.2" x2="685.9" y1="454" y2="454" class="st0"/><line x1="633.9" x2="685.2" y1="445.3" y2="445.3" class="st0"/><line x1="634.6" x2="684.5" y1="436.6" y2="436.6" class="st0"/><line x1="635.3" x2="683.8" y1="428" y2="428" class="st0"/><line x1="636" x2="683.1" y1="419.4" y2="419.4" class="st0"/><line x1="636.7" x2="682.3" y1="410.8" y2="410.8" class="st0"/><line x1="637.4" x2="681.6" y1="402.2" y2="402.2" class="st0"/><line x1="638.1" x2="680.9" y1="393.5" y2="393.5" class="st0"/><line x1="638.8" x2="680.2" y1="384.9" y2="384.9" class="st0"/><line x1="639.5" x2="679.5" y1="376.3" y2="376.3" class="st0"/><line x1="640.2" x2="678.8" y1="367.7" y2="367.7" class="st0"/><line x1="640.9" x2="678.1" y1="359.1" y2="359.1" class="st0"/><line x1="641.7" x2="677.4" y1="350.4" y2="350.4" class="st0"/><line x1="642.4" x2="676.7" y1="341.8" y2="341.8" class="st0"/><line x1="643.1" x2="676" y1="333.2" y2="333.2" class="st0"/><line x1="643.8" x2="675.3" y1="324.6" y2="324.6" class="st0"/><line x1="644.5" x2="674.5" y1="316" y2="316" class="st0"/><line x1="645.2" x2="673.8" y1="307.4" y2="307.4" class="st0"/><line x1="645.9" x2="673.1" y1="298.7" y2="298.7" class="st0"/><line x1="646.6" x2="672.4" y1="290.1" y2="290.1" class="st0"/><line x1="647.3" x2="671.7" y1="281.5" y2="281.5" class="st0"/><line x1="648" x2="671" y1="272.9" y2="272.9" class="st0"/><line x1="648.7" x2="670.3" y1="264.3" y2="264.3" class="st0"/><line x1="649.5" x2="669.6" y1="255.6" y2="255.6" class="st0"/><line x1="650.2" x2="668.9" y1="247" y2="247" class="st0"/><line x1="650.9" x2="668.2" y1="238.4" y2="238.4" class="st0"/><line x1="651.6" x2="667.5" y1="229.8" y2="229.8" class="st0"/><line x1="652.3" x2="666.7" y1="221.2" y2="221.2" class="st0"/><line x1="653" x2="666" y1="212.5" y2="212.5" class="st0"/></g><g><polyline points="648.2 211.5 631.2 211.5 631.2 416.7" class="st0"/><polyline points="710.3 710.3 658.7 89.5 607.2 710.3" class="st0"/><polyline points="669.3 211.5 686.3 211.5 686.3 416.7" class="st0"/></g><g><polyline points="637.9 710 627.2 662.1 616.5 710" class="st0"/><polyline points="668.8 710 658.1 662.1 647.4 710" class="st0"/><polyline points="699.7 710 689 662.1 678.3 710" class="st0"/></g><line x1="611.4" x2="706.1" y1="660.4" y2="660.4" class="st0"/><g><rect width="42.5" height="95.7" x="253" y="541.8" class="st0"/><g><g><polyline points="253 541.8 253 533.9 249.5 530.3 274.3 530.3" class="st0"/><polyline points="253 530.3 253 499.7 274.3 499.7" class="st0"/></g><g><polyline points="295.5 541.8 295.5 533.9 299 530.3 274.3 530.3" class="st0"/><polyline points="295.5 530.3 295.5 499.7 274.3 499.7" class="st0"/></g><rect width="49.5" height="5.6" x="249.5" y="494.1" class="st0"/></g><g><circle cx="274.3" cy="566.3" r="13.1" class="st0"/><circle cx="274.3" cy="566.3" r="10.3" class="st0"/></g><g><rect width="3.5" height="3.5" x="257.7" y="534.6" class="st0"/><rect width="3.5" height="3.5" x="263.6" y="534.6" class="st0"/><rect width="3.5" height="3.5" x="269.6" y="534.6" class="st0"/><rect width="3.5" height="3.5" x="275.5" y="534.6" class="st0"/><rect width="3.5" height="3.5" x="281.4" y="534.6" class="st0"/><rect width="3.5" height="3.5" x="287.4" y="534.6" class="st0"/></g><line x1="253" x2="295.5" y1="522.7" y2="522.7" class="st0"/><g><path d="M263.1,522.7h-4.9v-16.1c0-1.2,1-2.2,2.2-2.2h0.5c1.2,0,2.2,1,2.2,2.2L263.1,522.7L263.1,522.7z" class="st0"/><path d="M269.9,522.7H265v-16.1c0-1.2,1-2.2,2.2-2.2h0.5c1.2,0,2.2,1,2.2,2.2L269.9,522.7L269.9,522.7z" class="st0"/><path d="M276.7,522.7h-4.9v-16.1c0-1.2,1-2.2,2.2-2.2h0.5c1.2,0,2.2,1,2.2,2.2L276.7,522.7L276.7,522.7z" class="st0"/><path d="M283.5,522.7h-4.9v-16.1c0-1.2,1-2.2,2.2-2.2h0.5c1.2,0,2.2,1,2.2,2.2L283.5,522.7L283.5,522.7z" class="st0"/><path d="M290.3,522.7h-4.9v-16.1c0-1.2,1-2.2,2.2-2.2h0.5c1.2,0,2.2,1,2.2,2.2L290.3,522.7L290.3,522.7z" class="st0"/></g><g><line x1="274.2" x2="274.2" y1="587.8" y2="595.8" class="st0"/><line x1="262.6" x2="262.6" y1="606.7" y2="614.6" class="st0"/><line x1="285.9" x2="285.9" y1="606.7" y2="614.6" class="st0"/><line x1="274.2" x2="274.2" y1="625.2" y2="633.2" class="st0"/></g><rect width="31.2" height="10" x="258.7" y="484.1" class="st0"/><rect width="27.5" height="4.3" x="260.5" y="458.9" class="st0"/><rect width="23.9" height="20.9" x="262.3" y="463.2" class="st0"/><rect width="17" height="19.3" x="265.8" y="439.6" class="st0"/><rect width="22.6" height="4.7" x="263" y="434.9" class="st0"/><rect width="10.5" height="12.8" x="269" y="422.1" class="st0"/><rect width="14.6" height="3.1" x="267" y="419" class="st0"/><path d="M279.4,419c0-10.2-5.2-10.6-5.2-10.6l0,0c0,0-5.2,0.4-5.2,10.6" class="st0"/><line x1="273.9" x2="273.9" y1="408.4" y2="381.4" class="st0"/><path d="M273.9,383.2c0,0,6.4-1,9.9,3.2c3.1,3.6,7.9,3.4,7.9,3.4v10.8c0,0-4.8,0.2-7.9-3.4c-3.5-4.2-9.9-3.2-9.9-3.2" class="st0"/><g><g><line x1="271.2" x2="271.2" y1="463.2" y2="484.1" class="st0"/><line x1="267.3" x2="267.3" y1="463.2" y2="484.1" class="st0"/><line x1="264.4" x2="264.4" y1="463.2" y2="484.1" class="st0"/></g><g><line x1="277.5" x2="277.5" y1="463.2" y2="484.1" class="st0"/><line x1="281.5" x2="281.5" y1="463.2" y2="484.1" class="st0"/><line x1="284.3" x2="284.3" y1="463.2" y2="484.1" class="st0"/></g></g><g><g><line x1="272.2" x2="272.2" y1="439.6" y2="458.9" class="st0"/><line x1="269.5" x2="269.5" y1="439.6" y2="458.9" class="st0"/><line x1="267.5" x2="267.5" y1="439.6" y2="458.9" class="st0"/></g><g><line x1="276.5" x2="276.5" y1="439.6" y2="458.9" class="st0"/><line x1="279.2" x2="279.2" y1="439.6" y2="458.9" class="st0"/><line x1="281.2" x2="281.2" y1="439.6" y2="458.9" class="st0"/></g></g><g><line x1="272.9" x2="272.9" y1="422.1" y2="434.9" class="st0"/><line x1="276.1" x2="276.1" y1="422.1" y2="434.9" class="st0"/><line x1="270.4" x2="270.4" y1="422.1" y2="434.9" class="st0"/><line x1="278.1" x2="278.1" y1="422.1" y2="434.9" class="st0"/></g><polyline points="274.3 637.5 181.9 637.5 178.3 646.1 274.3 646.1" class="st0"/><polyline points="180.6 646.1 180.6 710 274.3 710" class="st0"/><g><rect width="4.7" height="8.9" x="188.7" y="660.2" class="st0"/><rect width="4.7" height="8.9" x="195.8" y="660.2" class="st0"/><rect width="4.7" height="8.9" x="202.9" y="660.2" class="st0"/><path d="M207.6,710h-18.8v-23.1c0-4.7,3.8-8.4,8.4-8.4h2c4.7,0,8.4,3.8,8.4,8.4L207.6,710L207.6,710z" class="st0"/><path d="M247.8,710h-29.1v-36.7c0-7.2,5.8-13,13-13h3.1c7.2,0,13,5.8,13,13V710z" class="st0"/></g><g><rect width="4.7" height="8.9" x="355.4" y="660.3" class="st0"/><rect width="4.7" height="8.9" x="348.4" y="660.3" class="st0"/><rect width="4.7" height="8.9" x="341.2" y="660.3" class="st0"/><path d="M341.3,710h18.8v-23.1c0-4.7-3.8-8.4-8.4-8.4h-2c-4.7,0-8.4,3.8-8.4,8.4V710z" class="st0"/><path d="M301,710h29.1v-36.7c0-7.2-5.8-13-13-13H314c-7.2,0-13,5.8-13,13V710z" class="st0"/></g><path d="M288.8,710h-29.1v-36.7c0-7.2,5.8-13,13-13h3.1c7.2,0,13,5.8,13,13V710z" class="st0"/><polyline points="274.2 637.5 366.6 637.5 370.2 646.1 274.2 646.1" class="st0"/><polyline points="366.8 646.1 366.8 710 273.1 710" class="st0"/><g><polyline points="253 625.2 16.1 625.2 1.4 641.7 0 650.6 180.6 650.6" class="st0"/><polyline points="6.4 650.6 6.4 710 180.6 710" class="st0"/><line x1="6.4" x2="180.6" y1="688.6" y2="688.6" class="st0"/><g><path d="M25.4,709.8H12v-10.6c0-3.3,2.7-6,6-6h1.4c3.3,0,6,2.7,6,6V709.8z" class="st0"/><g><path d="M25.4,683.3H12v-17.7c0-3.3,2.7-6,6-6h1.4c3.3,0,6,2.7,6,6V683.3z" class="st0"/><line x1="12" x2="25.4" y1="667.6" y2="667.6" class="st0"/><line x1="18.7" x2="18.7" y1="667.6" y2="683.3" class="st0"/><line x1="12" x2="25.4" y1="675.5" y2="675.5" class="st0"/></g></g><g><path d="M44.3,709.8H31v-10.6c0-3.3,2.7-6,6-6h1.4c3.3,0,6,2.7,6,6v10.6H44.3z" class="st0"/><g><path d="M44.3,683.3H31v-17.7c0-3.3,2.7-6,6-6h1.4c3.3,0,6,2.7,6,6v17.7H44.3z" class="st0"/><line x1="31" x2="44.3" y1="667.6" y2="667.6" class="st0"/><line x1="37.7" x2="37.7" y1="667.6" y2="683.3" class="st0"/><line x1="31" x2="44.3" y1="675.5" y2="675.5" class="st0"/></g></g><g><path d="M63.3,709.8H50v-10.6c0-3.3,2.7-6,6-6h1.4c3.3,0,6,2.7,6,6v10.6H63.3z" class="st0"/><g><path d="M63.3,683.3H50v-17.7c0-3.3,2.7-6,6-6h1.4c3.3,0,6,2.7,6,6v17.7H63.3z" class="st0"/><line x1="50" x2="63.3" y1="667.6" y2="667.6" class="st0"/><line x1="56.7" x2="56.7" y1="667.6" y2="683.3" class="st0"/><line x1="50" x2="63.3" y1="675.5" y2="675.5" class="st0"/></g></g><g><path d="M82.3,709.8H69v-10.6c0-3.3,2.7-6,6-6h1.4c3.3,0,6,2.7,6,6L82.3,709.8L82.3,709.8z" class="st0"/><g><path d="M82.3,683.3H69v-17.7c0-3.3,2.7-6,6-6h1.4c3.3,0,6,2.7,6,6L82.3,683.3L82.3,683.3z" class="st0"/><line x1="69" x2="82.3" y1="667.6" y2="667.6" class="st0"/><line x1="75.7" x2="75.7" y1="667.6" y2="683.3" class="st0"/><line x1="69" x2="82.3" y1="675.5" y2="675.5" class="st0"/></g></g><g><path d="M101.3,709.8H88v-10.6c0-3.3,2.7-6,6-6h1.4c3.3,0,6,2.7,6,6L101.3,709.8L101.3,709.8z" class="st0"/><g><path d="M101.3,683.3H88v-17.7c0-3.3,2.7-6,6-6h1.4c3.3,0,6,2.7,6,6L101.3,683.3L101.3,683.3z" class="st0"/><line x1="88" x2="101.3" y1="667.6" y2="667.6" class="st0"/><line x1="94.7" x2="94.7" y1="667.6" y2="683.3" class="st0"/><line x1="88" x2="101.3" y1="675.5" y2="675.5" class="st0"/></g></g><g><path d="M120.3,709.8H107v-10.6c0-3.3,2.7-6,6-6h1.4c3.3,0,6,2.7,6,6L120.3,709.8L120.3,709.8z" class="st0"/><g><path d="M120.3,683.3H107v-17.7c0-3.3,2.7-6,6-6h1.4c3.3,0,6,2.7,6,6L120.3,683.3L120.3,683.3z" class="st0"/><line x1="107" x2="120.3" y1="667.6" y2="667.6" class="st0"/><line x1="113.7" x2="113.7" y1="667.6" y2="683.3" class="st0"/><line x1="107" x2="120.3" y1="675.5" y2="675.5" class="st0"/></g></g><g><path d="M139.3,709.8H126v-10.6c0-3.3,2.7-6,6-6h1.4c3.3,0,6,2.7,6,6L139.3,709.8L139.3,709.8z" class="st0"/><g><path d="M139.3,683.3H126v-17.7c0-3.3,2.7-6,6-6h1.4c3.3,0,6,2.7,6,6L139.3,683.3L139.3,683.3z" class="st0"/><line x1="126" x2="139.3" y1="667.6" y2="667.6" class="st0"/><line x1="132.6" x2="132.6" y1="667.6" y2="683.3" class="st0"/><line x1="126" x2="139.3" y1="675.5" y2="675.5" class="st0"/></g></g><g><g><path d="M158.3,683.3H145v-17.7c0-3.3,2.7-6,6-6h1.4c3.3,0,6,2.7,6,6L158.3,683.3L158.3,683.3z" class="st0"/><line x1="145" x2="158.3" y1="667.6" y2="667.6" class="st0"/><line x1="151.6" x2="151.6" y1="667.6" y2="683.3" class="st0"/><line x1="145" x2="158.3" y1="675.5" y2="675.5" class="st0"/></g></g><g><g><path d="M177.3,683.3H164v-17.7c0-3.3,2.7-6,6-6h1.4c3.3,0,6,2.7,6,6L177.3,683.3L177.3,683.3z" class="st0"/><line x1="164" x2="177.3" y1="667.6" y2="667.6" class="st0"/><line x1="170.6" x2="170.6" y1="667.6" y2="683.3" class="st0"/><line x1="164" x2="177.3" y1="675.5" y2="675.5" class="st0"/></g></g><polyline points="145 710 145 693.2 177.3 693.2 177.3 710" class="st0"/><line x1="1.4" x2="180.1" y1="641.7" y2="641.7" class="st0"/><line x1="6.4" x2="93.5" y1="655.2" y2="655.2" class="st0"/></g><g><polyline points="295.3 625.2 531.7 625.2 546.4 641.7 547.8 650.6 367.1 650.6" class="st0"/><polyline points="541.4 650.6 541.4 710 367.1 710" class="st0"/><line x1="541.4" x2="367.1" y1="688.6" y2="688.6" class="st0"/><g><path d="M522.5,709.8h13.3v-10.6c0-3.3-2.7-6-6-6h-1.4c-3.3,0-6,2.7-6,6v10.6H522.5z" class="st0"/><g><path d="M522.5,683.3h13.3v-17.7c0-3.3-2.7-6-6-6h-1.4c-3.3,0-6,2.7-6,6v17.7H522.5z" class="st0"/><line x1="535.8" x2="522.5" y1="667.6" y2="667.6" class="st0"/><line x1="529.1" x2="529.1" y1="667.6" y2="683.3" class="st0"/><line x1="535.8" x2="522.5" y1="675.5" y2="675.5" class="st0"/></g></g><g><path d="M503.5,709.8h13.3v-10.6c0-3.3-2.7-6-6-6h-1.4c-3.3,0-6,2.7-6,6v10.6H503.5z" class="st0"/><g><path d="M503.5,683.3h13.3v-17.7c0-3.3-2.7-6-6-6h-1.4c-3.3,0-6,2.7-6,6v17.7H503.5z" class="st0"/><line x1="516.8" x2="503.5" y1="667.6" y2="667.6" class="st0"/><line x1="510.1" x2="510.1" y1="667.6" y2="683.3" class="st0"/><line x1="516.8" x2="503.5" y1="675.5" y2="675.5" class="st0"/></g></g><g><path d="M484.5,709.8h13.3v-10.6c0-3.3-2.7-6-6-6h-1.4c-3.3,0-6,2.7-6,6v10.6H484.5z" class="st0"/><g><path d="M484.5,683.3h13.3v-17.7c0-3.3-2.7-6-6-6h-1.4c-3.3,0-6,2.7-6,6v17.7H484.5z" class="st0"/><line x1="497.8" x2="484.5" y1="667.6" y2="667.6" class="st0"/><line x1="491.1" x2="491.1" y1="667.6" y2="683.3" class="st0"/><line x1="497.8" x2="484.5" y1="675.5" y2="675.5" class="st0"/></g></g><g><path d="M465.4,709.8h13.3v-10.6c0-3.3-2.7-6-6-6h-1.4c-3.3,0-6,2.7-6,6v10.6H465.4z" class="st0"/><g><path d="M465.4,683.3h13.3v-17.7c0-3.3-2.7-6-6-6h-1.4c-3.3,0-6,2.7-6,6v17.7H465.4z" class="st0"/><line x1="478.8" x2="465.4" y1="667.6" y2="667.6" class="st0"/><line x1="472" x2="472" y1="667.6" y2="683.3" class="st0"/><line x1="478.8" x2="465.4" y1="675.5" y2="675.5" class="st0"/></g></g><g><path d="M446.4,709.8h13.3v-10.6c0-3.3-2.7-6-6-6h-1.3c-3.3,0-6,2.7-6,6V709.8z" class="st0"/><g><path d="M446.4,683.3h13.3v-17.7c0-3.3-2.7-6-6-6h-1.3c-3.3,0-6,2.7-6,6V683.3z" class="st0"/><line x1="459.7" x2="446.4" y1="667.6" y2="667.6" class="st0"/><line x1="453.1" x2="453.1" y1="667.6" y2="683.3" class="st0"/><line x1="459.7" x2="446.4" y1="675.5" y2="675.5" class="st0"/></g></g><g><path d="M427.4,709.8h13.3v-10.6c0-3.3-2.7-6-6-6h-1.3c-3.3,0-6,2.7-6,6V709.8z" class="st0"/><g><path d="M427.4,683.3h13.3v-17.7c0-3.3-2.7-6-6-6h-1.3c-3.3,0-6,2.7-6,6V683.3z" class="st0"/><line x1="440.7" x2="427.4" y1="667.6" y2="667.6" class="st0"/><line x1="434.1" x2="434.1" y1="667.6" y2="683.3" class="st0"/><line x1="440.7" x2="427.4" y1="675.5" y2="675.5" class="st0"/></g></g><g><path d="M408.4,709.8h13.3v-10.6c0-3.3-2.7-6-6-6h-1.3c-3.3,0-6,2.7-6,6V709.8z" class="st0"/><g><path d="M408.4,683.3h13.3v-17.7c0-3.3-2.7-6-6-6h-1.3c-3.3,0-6,2.7-6,6V683.3z" class="st0"/><line x1="421.7" x2="408.4" y1="667.6" y2="667.6" class="st0"/><line x1="415.1" x2="415.1" y1="667.6" y2="683.3" class="st0"/><line x1="421.7" x2="408.4" y1="675.5" y2="675.5" class="st0"/></g></g><g><g><path d="M389.4,683.3h13.3v-17.7c0-3.3-2.7-6-6-6h-1.3c-3.3,0-6,2.7-6,6V683.3z" class="st0"/><line x1="402.7" x2="389.4" y1="667.6" y2="667.6" class="st0"/><line x1="396.1" x2="396.1" y1="667.6" y2="683.3" class="st0"/><line x1="402.7" x2="389.4" y1="675.5" y2="675.5" class="st0"/></g></g><g><g><path d="M370.4,683.3h13.3v-17.7c0-3.3-2.7-6-6-6h-1.3c-3.3,0-6,2.7-6,6V683.3z" class="st0"/><line x1="383.8" x2="370.4" y1="667.6" y2="667.6" class="st0"/><line x1="377.1" x2="377.1" y1="667.6" y2="683.3" class="st0"/><line x1="383.8" x2="370.4" y1="675.5" y2="675.5" class="st0"/></g></g><polyline points="402.7 710 402.7 693.2 370.4 693.2 370.4 710" class="st0"/><line x1="546.4" x2="368.2" y1="641.7" y2="641.7" class="st0"/><line x1="454.2" x2="367.1" y1="655.2" y2="655.2" class="st0"/></g></g><g><rect width="18.1" height="427.4" x="400.8" y="197.7" class="st0"/><rect width="18.1" height="387.7" x="382.7" y="237.5" class="st0"/><rect width="18.1" height="365.6" x="364.6" y="259.6" class="st0"/><rect width="18.1" height="427.4" x="424.6" y="197.8" class="st0"/><rect width="18.1" height="381.6" x="442.7" y="243.6" class="st0"/><rect width="18.1" height="367.6" x="460.8" y="257.6" class="st0"/><g><g><line x1="406" x2="413.8" y1="206.5" y2="206.5" class="st0"/><line x1="406" x2="413.8" y1="216.5" y2="216.5" class="st0"/><line x1="406" x2="413.8" y1="226.5" y2="226.5" class="st0"/><line x1="406" x2="413.8" y1="236.4" y2="236.4" class="st0"/><line x1="406" x2="413.8" y1="246.4" y2="246.4" class="st0"/><line x1="406" x2="413.8" y1="256.4" y2="256.4" class="st0"/><line x1="406" x2="413.8" y1="266.3" y2="266.3" class="st0"/><line x1="406" x2="413.8" y1="276.3" y2="276.3" class="st0"/><line x1="406" x2="413.8" y1="286.3" y2="286.3" class="st0"/><line x1="406" x2="413.8" y1="296.2" y2="296.2" class="st0"/><line x1="406" x2="413.8" y1="306.2" y2="306.2" class="st0"/><line x1="406" x2="413.8" y1="316.1" y2="316.1" class="st0"/><line x1="406" x2="413.8" y1="326.1" y2="326.1" class="st0"/><line x1="406" x2="413.8" y1="336.1" y2="336.1" class="st0"/><line x1="406" x2="413.8" y1="346" y2="346" class="st0"/><line x1="406" x2="413.8" y1="356" y2="356" class="st0"/><line x1="406" x2="413.8" y1="366" y2="366" class="st0"/><line x1="406" x2="413.8" y1="375.9" y2="375.9" class="st0"/><line x1="406" x2="413.8" y1="385.9" y2="385.9" class="st0"/><line x1="406" x2="413.8" y1="395.9" y2="395.9" class="st0"/><line x1="406" x2="413.8" y1="405.8" y2="405.8" class="st0"/><line x1="406" x2="413.8" y1="415.8" y2="415.8" class="st0"/><line x1="406" x2="413.8" y1="425.7" y2="425.7" class="st0"/><line x1="406" x2="413.8" y1="435.7" y2="435.7" class="st0"/><line x1="406" x2="413.8" y1="445.7" y2="445.7" class="st0"/><line x1="406" x2="413.8" y1="455.7" y2="455.7" class="st0"/><line x1="406" x2="413.8" y1="465.7" y2="465.7" class="st0"/><line x1="406" x2="413.8" y1="475.7" y2="475.7" class="st0"/><line x1="406" x2="413.8" y1="485.6" y2="485.6" class="st0"/><line x1="406" x2="413.8" y1="495.6" y2="495.6" class="st0"/><line x1="406" x2="413.8" y1="505.6" y2="505.6" class="st0"/><line x1="406" x2="413.8" y1="515.5" y2="515.5" class="st0"/><line x1="406" x2="413.8" y1="525.5" y2="525.5" class="st0"/><line x1="406" x2="413.8" y1="535.5" y2="535.5" class="st0"/><line x1="406" x2="413.8" y1="545.4" y2="545.4" class="st0"/><line x1="406" x2="413.8" y1="555.4" y2="555.4" class="st0"/><line x1="406" x2="413.8" y1="565.3" y2="565.3" class="st0"/><line x1="406" x2="413.8" y1="575.3" y2="575.3" class="st0"/><line x1="406" x2="413.8" y1="585.3" y2="585.3" class="st0"/><line x1="406" x2="413.8" y1="595.2" y2="595.2" class="st0"/><line x1="406" x2="413.8" y1="605.2" y2="605.2" class="st0"/><line x1="406" x2="413.8" y1="615.2" y2="615.2" class="st0"/></g><g><line x1="387.9" x2="395.7" y1="246.4" y2="246.4" class="st0"/><line x1="387.9" x2="395.7" y1="256.4" y2="256.4" class="st0"/><line x1="387.9" x2="395.7" y1="266.3" y2="266.3" class="st0"/><line x1="387.9" x2="395.7" y1="276.3" y2="276.3" class="st0"/><line x1="387.9" x2="395.7" y1="286.3" y2="286.3" class="st0"/><line x1="387.9" x2="395.7" y1="296.2" y2="296.2" class="st0"/><line x1="387.9" x2="395.7" y1="306.2" y2="306.2" class="st0"/><line x1="387.9" x2="395.7" y1="316.1" y2="316.1" class="st0"/><line x1="387.9" x2="395.7" y1="326.1" y2="326.1" class="st0"/><line x1="387.9" x2="395.7" y1="336.1" y2="336.1" class="st0"/><line x1="387.9" x2="395.7" y1="346" y2="346" class="st0"/><line x1="387.9" x2="395.7" y1="356" y2="356" class="st0"/><line x1="387.9" x2="395.7" y1="366" y2="366" class="st0"/><line x1="387.9" x2="395.7" y1="375.9" y2="375.9" class="st0"/><line x1="387.9" x2="395.7" y1="385.9" y2="385.9" class="st0"/><line x1="387.9" x2="395.7" y1="395.9" y2="395.9" class="st0"/><line x1="387.9" x2="395.7" y1="405.8" y2="405.8" class="st0"/><line x1="387.9" x2="395.7" y1="415.8" y2="415.8" class="st0"/><line x1="387.9" x2="395.7" y1="425.7" y2="425.7" class="st0"/><line x1="387.9" x2="395.7" y1="435.7" y2="435.7" class="st0"/><line x1="387.9" x2="395.7" y1="445.7" y2="445.7" class="st0"/><line x1="387.9" x2="395.7" y1="455.7" y2="455.7" class="st0"/><line x1="387.9" x2="395.7" y1="465.7" y2="465.7" class="st0"/><line x1="387.9" x2="395.7" y1="475.7" y2="475.7" class="st0"/><line x1="387.9" x2="395.7" y1="485.6" y2="485.6" class="st0"/><line x1="387.9" x2="395.7" y1="495.6" y2="495.6" class="st0"/><line x1="387.9" x2="395.7" y1="505.6" y2="505.6" class="st0"/><line x1="387.9" x2="395.7" y1="515.5" y2="515.5" class="st0"/><line x1="387.9" x2="395.7" y1="525.5" y2="525.5" class="st0"/><line x1="387.9" x2="395.7" y1="535.5" y2="535.5" class="st0"/><line x1="387.9" x2="395.7" y1="545.4" y2="545.4" class="st0"/><line x1="387.9" x2="395.7" y1="555.4" y2="555.4" class="st0"/><line x1="387.9" x2="395.7" y1="565.3" y2="565.3" class="st0"/><line x1="387.9" x2="395.7" y1="575.3" y2="575.3" class="st0"/><line x1="387.9" x2="395.7" y1="585.3" y2="585.3" class="st0"/><line x1="387.9" x2="395.7" y1="595.2" y2="595.2" class="st0"/><line x1="387.9" x2="395.7" y1="605.2" y2="605.2" class="st0"/><line x1="387.9" x2="395.7" y1="615.2" y2="615.2" class="st0"/></g><g><line x1="369.8" x2="377.6" y1="266.3" y2="266.3" class="st0"/><line x1="369.8" x2="377.6" y1="276.3" y2="276.3" class="st0"/><line x1="369.8" x2="377.6" y1="286.3" y2="286.3" class="st0"/><line x1="369.8" x2="377.6" y1="296.2" y2="296.2" class="st0"/><line x1="369.8" x2="377.6" y1="306.2" y2="306.2" class="st0"/><line x1="369.8" x2="377.6" y1="316.1" y2="316.1" class="st0"/><line x1="369.8" x2="377.6" y1="326.1" y2="326.1" class="st0"/><line x1="369.8" x2="377.6" y1="336.1" y2="336.1" class="st0"/><line x1="369.8" x2="377.6" y1="346" y2="346" class="st0"/><line x1="369.8" x2="377.6" y1="356" y2="356" class="st0"/><line x1="369.8" x2="377.6" y1="366" y2="366" class="st0"/><line x1="369.8" x2="377.6" y1="375.9" y2="375.9" class="st0"/><line x1="369.8" x2="377.6" y1="385.9" y2="385.9" class="st0"/><line x1="369.8" x2="377.6" y1="395.9" y2="395.9" class="st0"/><line x1="369.8" x2="377.6" y1="405.8" y2="405.8" class="st0"/><line x1="369.8" x2="377.6" y1="415.8" y2="415.8" class="st0"/><line x1="369.8" x2="377.6" y1="425.7" y2="425.7" class="st0"/><line x1="369.8" x2="377.6" y1="435.7" y2="435.7" class="st0"/><line x1="369.8" x2="377.6" y1="445.7" y2="445.7" class="st0"/><line x1="369.8" x2="377.6" y1="455.7" y2="455.7" class="st0"/><line x1="369.8" x2="377.6" y1="465.7" y2="465.7" class="st0"/><line x1="369.8" x2="377.6" y1="475.7" y2="475.7" class="st0"/><line x1="369.8" x2="377.6" y1="485.6" y2="485.6" class="st0"/><line x1="369.8" x2="377.6" y1="495.6" y2="495.6" class="st0"/><line x1="369.8" x2="377.6" y1="505.6" y2="505.6" class="st0"/><line x1="369.8" x2="377.6" y1="515.5" y2="515.5" class="st0"/><line x1="369.8" x2="377.6" y1="525.5" y2="525.5" class="st0"/><line x1="369.8" x2="377.6" y1="535.5" y2="535.5" class="st0"/><line x1="369.8" x2="377.6" y1="545.4" y2="545.4" class="st0"/><line x1="369.8" x2="377.6" y1="555.4" y2="555.4" class="st0"/><line x1="369.8" x2="377.6" y1="565.3" y2="565.3" class="st0"/><line x1="369.8" x2="377.6" y1="575.3" y2="575.3" class="st0"/><line x1="369.8" x2="377.6" y1="585.3" y2="585.3" class="st0"/><line x1="369.8" x2="377.6" y1="595.2" y2="595.2" class="st0"/><line x1="369.8" x2="377.6" y1="605.2" y2="605.2" class="st0"/><line x1="369.8" x2="377.6" y1="615.2" y2="615.2" class="st0"/></g></g><g><g><line x1="437.1" x2="429.3" y1="207.1" y2="207.1" class="st0"/><line x1="437.1" x2="429.3" y1="217.1" y2="217.1" class="st0"/><line x1="437.1" x2="429.3" y1="227.1" y2="227.1" class="st0"/><line x1="437.1" x2="429.3" y1="237" y2="237" class="st0"/><line x1="437.1" x2="429.3" y1="247" y2="247" class="st0"/><line x1="437.1" x2="429.3" y1="257" y2="257" class="st0"/><line x1="437.1" x2="429.3" y1="266.9" y2="266.9" class="st0"/><line x1="437.1" x2="429.3" y1="276.9" y2="276.9" class="st0"/><line x1="437.1" x2="429.3" y1="286.9" y2="286.9" class="st0"/><line x1="437.1" x2="429.3" y1="296.8" y2="296.8" class="st0"/><line x1="437.1" x2="429.3" y1="306.8" y2="306.8" class="st0"/><line x1="437.1" x2="429.3" y1="316.8" y2="316.8" class="st0"/><line x1="437.1" x2="429.3" y1="326.7" y2="326.7" class="st0"/><line x1="437.1" x2="429.3" y1="336.7" y2="336.7" class="st0"/><line x1="437.1" x2="429.3" y1="346.6" y2="346.6" class="st0"/><line x1="437.1" x2="429.3" y1="356.6" y2="356.6" class="st0"/><line x1="437.1" x2="429.3" y1="366.6" y2="366.6" class="st0"/><line x1="437.1" x2="429.3" y1="376.5" y2="376.5" class="st0"/><line x1="437.1" x2="429.3" y1="386.5" y2="386.5" class="st0"/><line x1="437.1" x2="429.3" y1="396.5" y2="396.5" class="st0"/><line x1="437.1" x2="429.3" y1="406.4" y2="406.4" class="st0"/><line x1="437.1" x2="429.3" y1="416.4" y2="416.4" class="st0"/><line x1="437.1" x2="429.3" y1="426.4" y2="426.4" class="st0"/><line x1="437.1" x2="429.3" y1="436.3" y2="436.3" class="st0"/><line x1="437.1" x2="429.3" y1="446.3" y2="446.3" class="st0"/><line x1="437.1" x2="429.3" y1="456.3" y2="456.3" class="st0"/><line x1="437.1" x2="429.3" y1="466.3" y2="466.3" class="st0"/><line x1="437.1" x2="429.3" y1="476.3" y2="476.3" class="st0"/><line x1="437.1" x2="429.3" y1="486.2" y2="486.2" class="st0"/><line x1="437.1" x2="429.3" y1="496.2" y2="496.2" class="st0"/><line x1="437.1" x2="429.3" y1="506.2" y2="506.2" class="st0"/><line x1="437.1" x2="429.3" y1="516.1" y2="516.1" class="st0"/><line x1="437.1" x2="429.3" y1="526.1" y2="526.1" class="st0"/><line x1="437.1" x2="429.3" y1="536.1" y2="536.1" class="st0"/><line x1="437.1" x2="429.3" y1="546" y2="546" class="st0"/><line x1="437.1" x2="429.3" y1="556" y2="556" class="st0"/><line x1="437.1" x2="429.3" y1="566" y2="566" class="st0"/><line x1="437.1" x2="429.3" y1="575.9" y2="575.9" class="st0"/><line x1="437.1" x2="429.3" y1="585.9" y2="585.9" class="st0"/><line x1="437.1" x2="429.3" y1="595.8" y2="595.8" class="st0"/><line x1="437.1" x2="429.3" y1="605.8" y2="605.8" class="st0"/><line x1="437.1" x2="429.3" y1="615.8" y2="615.8" class="st0"/></g><g><line x1="455.2" x2="447.4" y1="247" y2="247" class="st0"/><line x1="455.2" x2="447.4" y1="257" y2="257" class="st0"/><line x1="455.2" x2="447.4" y1="266.9" y2="266.9" class="st0"/><line x1="455.2" x2="447.4" y1="276.9" y2="276.9" class="st0"/><line x1="455.2" x2="447.4" y1="286.9" y2="286.9" class="st0"/><line x1="455.2" x2="447.4" y1="296.8" y2="296.8" class="st0"/><line x1="455.2" x2="447.4" y1="306.8" y2="306.8" class="st0"/><line x1="455.2" x2="447.4" y1="316.8" y2="316.8" class="st0"/><line x1="455.2" x2="447.4" y1="326.7" y2="326.7" class="st0"/><line x1="455.2" x2="447.4" y1="336.7" y2="336.7" class="st0"/><line x1="455.2" x2="447.4" y1="346.6" y2="346.6" class="st0"/><line x1="455.2" x2="447.4" y1="356.6" y2="356.6" class="st0"/><line x1="455.2" x2="447.4" y1="366.6" y2="366.6" class="st0"/><line x1="455.2" x2="447.4" y1="376.5" y2="376.5" class="st0"/><line x1="455.2" x2="447.4" y1="386.5" y2="386.5" class="st0"/><line x1="455.2" x2="447.4" y1="396.5" y2="396.5" class="st0"/><line x1="455.2" x2="447.4" y1="406.4" y2="406.4" class="st0"/><line x1="455.2" x2="447.4" y1="416.4" y2="416.4" class="st0"/><line x1="455.2" x2="447.4" y1="426.4" y2="426.4" class="st0"/><line x1="455.2" x2="447.4" y1="436.3" y2="436.3" class="st0"/><line x1="455.2" x2="447.4" y1="446.3" y2="446.3" class="st0"/><line x1="455.2" x2="447.4" y1="456.3" y2="456.3" class="st0"/><line x1="455.2" x2="447.4" y1="466.3" y2="466.3" class="st0"/><line x1="455.2" x2="447.4" y1="476.3" y2="476.3" class="st0"/><line x1="455.2" x2="447.4" y1="486.2" y2="486.2" class="st0"/><line x1="455.2" x2="447.4" y1="496.2" y2="496.2" class="st0"/><line x1="455.2" x2="447.4" y1="506.2" y2="506.2" class="st0"/><line x1="455.2" x2="447.4" y1="516.1" y2="516.1" class="st0"/><line x1="455.2" x2="447.4" y1="526.1" y2="526.1" class="st0"/><line x1="455.2" x2="447.4" y1="536.1" y2="536.1" class="st0"/><line x1="455.2" x2="447.4" y1="546" y2="546" class="st0"/><line x1="455.2" x2="447.4" y1="556" y2="556" class="st0"/><line x1="455.2" x2="447.4" y1="566" y2="566" class="st0"/><line x1="455.2" x2="447.4" y1="575.9" y2="575.9" class="st0"/><line x1="455.2" x2="447.4" y1="585.9" y2="585.9" class="st0"/><line x1="455.2" x2="447.4" y1="595.8" y2="595.8" class="st0"/><line x1="455.2" x2="447.4" y1="605.8" y2="605.8" class="st0"/><line x1="455.2" x2="447.4" y1="615.8" y2="615.8" class="st0"/></g><g><line x1="473.2" x2="465.4" y1="266.9" y2="266.9" class="st0"/><line x1="473.2" x2="465.4" y1="276.9" y2="276.9" class="st0"/><line x1="473.2" x2="465.4" y1="286.9" y2="286.9" class="st0"/><line x1="473.2" x2="465.4" y1="296.8" y2="296.8" class="st0"/><line x1="473.2" x2="465.4" y1="306.8" y2="306.8" class="st0"/><line x1="473.2" x2="465.4" y1="316.8" y2="316.8" class="st0"/><line x1="473.2" x2="465.4" y1="326.7" y2="326.7" class="st0"/><line x1="473.2" x2="465.4" y1="336.7" y2="336.7" class="st0"/><line x1="473.2" x2="465.4" y1="346.6" y2="346.6" class="st0"/><line x1="473.2" x2="465.4" y1="356.6" y2="356.6" class="st0"/><line x1="473.2" x2="465.4" y1="366.6" y2="366.6" class="st0"/><line x1="473.2" x2="465.4" y1="376.5" y2="376.5" class="st0"/><line x1="473.2" x2="465.4" y1="386.5" y2="386.5" class="st0"/><line x1="473.2" x2="465.4" y1="396.5" y2="396.5" class="st0"/><line x1="473.2" x2="465.4" y1="406.4" y2="406.4" class="st0"/><line x1="473.2" x2="465.4" y1="416.4" y2="416.4" class="st0"/><line x1="473.2" x2="465.4" y1="426.4" y2="426.4" class="st0"/><line x1="473.2" x2="465.4" y1="436.3" y2="436.3" class="st0"/><line x1="473.2" x2="465.4" y1="446.3" y2="446.3" class="st0"/><line x1="473.2" x2="465.4" y1="456.3" y2="456.3" class="st0"/><line x1="473.2" x2="465.4" y1="466.3" y2="466.3" class="st0"/><line x1="473.2" x2="465.4" y1="476.3" y2="476.3" class="st0"/><line x1="473.2" x2="465.4" y1="486.2" y2="486.2" class="st0"/><line x1="473.2" x2="465.4" y1="496.2" y2="496.2" class="st0"/><line x1="473.2" x2="465.4" y1="506.2" y2="506.2" class="st0"/><line x1="473.2" x2="465.4" y1="516.1" y2="516.1" class="st0"/><line x1="473.2" x2="465.4" y1="526.1" y2="526.1" class="st0"/><line x1="473.2" x2="465.4" y1="536.1" y2="536.1" class="st0"/><line x1="473.2" x2="465.4" y1="546" y2="546" class="st0"/><line x1="473.2" x2="465.4" y1="556" y2="556" class="st0"/><line x1="473.2" x2="465.4" y1="566" y2="566" class="st0"/><line x1="473.2" x2="465.4" y1="575.9" y2="575.9" class="st0"/><line x1="473.2" x2="465.4" y1="585.9" y2="585.9" class="st0"/><line x1="473.2" x2="465.4" y1="595.8" y2="595.8" class="st0"/><line x1="473.2" x2="465.4" y1="605.8" y2="605.8" class="st0"/><line x1="473.2" x2="465.4" y1="615.8" y2="615.8" class="st0"/></g></g></g><rect width="154.7" height="285.6" x="25.4" y="339.6" class="st0"/><g><line x1="25.4" x2="180.1" y1="352.4" y2="352.4" class="st0"/><line x1="25.4" x2="180.1" y1="364.9" y2="364.9" class="st0"/><line x1="25.4" x2="180.1" y1="377.4" y2="377.4" class="st0"/><line x1="25.4" x2="180.1" y1="389.9" y2="389.9" class="st0"/><line x1="25.4" x2="180.1" y1="402.3" y2="402.3" class="st0"/><line x1="25.4" x2="180.1" y1="414.8" y2="414.8" class="st0"/><line x1="25.4" x2="180.1" y1="427.3" y2="427.3" class="st0"/><line x1="25.4" x2="180.1" y1="439.8" y2="439.8" class="st0"/><line x1="25.4" x2="180.1" y1="452.4" y2="452.4" class="st0"/><line x1="25.4" x2="180.1" y1="464.8" y2="464.8" class="st0"/><line x1="25.4" x2="180.1" y1="477.3" y2="477.3" class="st0"/><line x1="25.4" x2="180.1" y1="489.8" y2="489.8" class="st0"/><line x1="25.4" x2="180.1" y1="502.3" y2="502.3" class="st0"/><line x1="25.4" x2="180.1" y1="514.8" y2="514.8" class="st0"/><line x1="25.4" x2="180.1" y1="527.3" y2="527.3" class="st0"/><line x1="25.4" x2="180.1" y1="539.7" y2="539.7" class="st0"/><line x1="25.4" x2="180.1" y1="552.2" y2="552.2" class="st0"/><line x1="25.4" x2="180.1" y1="564.7" y2="564.7" class="st0"/><line x1="25.4" x2="180.1" y1="577.2" y2="577.2" class="st0"/><line x1="25.4" x2="180.1" y1="589.7" y2="589.7" class="st0"/><line x1="25.4" x2="180.1" y1="602.1" y2="602.1" class="st0"/><line x1="25.4" x2="180.1" y1="614.6" y2="614.6" class="st0"/></g><rect width="58.9" height="204.5" x="180.1" y="420.6" class="st0"/><line x1="214.3" x2="214.3" y1="420.6" y2="625.2" class="st0"/><g><g><rect width="7.6" height="16.2" x="186.3" y="426.9" class="st0"/><rect width="7.6" height="16.2" x="200" y="426.9" class="st0"/></g><g><rect width="7.6" height="16.2" x="186.3" y="448.9" class="st0"/><rect width="7.6" height="16.2" x="200" y="448.9" class="st0"/></g><g><rect width="7.6" height="16.2" x="186.3" y="470.9" class="st0"/><rect width="7.6" height="16.2" x="200" y="470.9" class="st0"/></g><g><rect width="7.6" height="16.2" x="186.3" y="492.8" class="st0"/><rect width="7.6" height="16.2" x="200" y="492.8" class="st0"/></g><g><rect width="7.6" height="16.2" x="186.3" y="514.8" class="st0"/><rect width="7.6" height="16.2" x="200" y="514.8" class="st0"/></g><g><rect width="7.6" height="16.2" x="186.3" y="536.8" class="st0"/><rect width="7.6" height="16.2" x="200" y="536.8" class="st0"/></g><g><rect width="7.6" height="16.2" x="186.3" y="558.7" class="st0"/><rect width="7.6" height="16.2" x="200" y="558.7" class="st0"/></g><g><rect width="7.6" height="16.2" x="186.3" y="580.7" class="st0"/><rect width="7.6" height="16.2" x="200" y="580.7" class="st0"/></g><g><rect width="7.6" height="16.2" x="186.3" y="602.6" class="st0"/><rect width="7.6" height="16.2" x="200" y="602.6" class="st0"/></g></g><g><g><rect width="7.6" height="16.2" x="223" y="426.9" class="st0"/></g><g><rect width="7.6" height="16.2" x="223" y="448.9" class="st0"/></g><g><rect width="7.6" height="16.2" x="223" y="470.9" class="st0"/></g><g><rect width="7.6" height="16.2" x="223" y="492.8" class="st0"/></g><g><rect width="7.6" height="16.2" x="223" y="514.8" class="st0"/></g><g><rect width="7.6" height="16.2" x="223" y="536.8" class="st0"/></g><g><rect width="7.6" height="16.2" x="223" y="558.7" class="st0"/></g><g><rect width="7.6" height="16.2" x="223" y="580.7" class="st0"/></g><g><rect width="7.6" height="16.2" x="223" y="602.6" class="st0"/></g></g><rect width="60.8" height="6.9" x="180.1" y="413.7" class="st0"/><line x1="239" x2="253" y1="554.6" y2="554.6" class="st0"/><polyline points="295.5 567.6 315.6 567.6 315.6 531.1 331.4 531.1 331.4 549.4 350.7 549.4 350.7 461.1 364.6 461.1" class="st0"/><polyline points="322.2 530.3 322.2 422.1 357.8 422.1 357.8 461.1" class="st0"/><polyline points="180.1 370.1 210.5 370.1 224.2 383.7 224.2 413.7" class="st0"/><line x1="541.4" x2="608" y1="707.1" y2="700.4" class="st0"/><polyline points="575 666.9 558 650 542 666.9 574.9 666.9 574.9 703.7" class="st0"/><polyline points="545.9 666.9 558 653.9 570.8 666.9" class="st0"/><rect width="158.9" height="4" x="23.3" y="335.6" class="st0"/><line x1="340" x2="340" y1="422.1" y2="400.6" class="st0"/><rect width="4.1" height="4.8" x="555.9" y="660.1" class="st0"/><line x1="556.9" x2="556.9" y1="666.9" y2="705.5" class="st0"/><line x1="541.4" x2="574.9" y1="681.8" y2="681.8" class="st0"/><line x1="541.4" x2="574.7" y1="684.9" y2="684.9" class="st0"/><line x1="541.4" x2="574.9" y1="669.7" y2="669.7" class="st0"/><line x1="562.2" x2="562.2" y1="666.9" y2="705" class="st0"/><line x1="569.6" x2="569.6" y1="666.9" y2="704.2" class="st0"/><rect width="4.7" height="7.1" x="546.7" y="672.4" class="st0"/><path d="M544,706.8v-13.7c0-2.9,2.4-5.3,5.3-5.3l0,0c2.9,0,5.3,2.4,5.3,5.3v12.7" class="st0"/><polyline points="608.6 661.7 591.6 644.8 575.4 661.7 608.5 661.7 608.5 695" class="st0"/><polyline points="579.5 661.7 591.6 648.7 604.3 661.7" class="st0"/><path d="M591.8,659.6h-0.4c-1,0-1.8-0.8-1.8-1.8v-1.1c0-1,0.8-1.8,1.8-1.8h0.4c1,0,1.8,0.8,1.8,1.8v1.1	C593.6,658.8,592.8,659.6,591.8,659.6z" class="st0"/><line x1="590.5" x2="590.5" y1="661.7" y2="702.2" class="st0"/><line x1="575" x2="608.5" y1="676.6" y2="676.6" class="st0"/><line x1="575" x2="608.3" y1="679.7" y2="679.7" class="st0"/><line x1="575" x2="608.5" y1="664.5" y2="664.5" class="st0"/><line x1="595.8" x2="595.8" y1="661.7" y2="701.7" class="st0"/><line x1="603.2" x2="603.2" y1="661.7" y2="700.9" class="st0"/><path d="M585,674.2h-4.7v-5c0-1.2,0.9-2.1,2.1-2.1h0.5c1.2,0,2.1,0.9,2.1,2.1L585,674.2L585,674.2z" class="st0"/><polyline points="577.6 703.5 577.6 682.6 588.1 682.6 588.1 702.4" class="st0"/><line x1="544" x2="554.5" y1="699.3" y2="699.3" class="st0"/><line x1="544" x2="554.5" y1="703.1" y2="703.1" class="st0"/><line x1="575" x2="575" y1="703.1" y2="661.7" class="st0"/><line x1="577.6" x2="588.1" y1="695.8" y2="695.8" class="st0"/><line x1="577.6" x2="588.1" y1="699.3" y2="699.3" class="st0"/><polyline points="513.9 625.2 513.9 482.4 585 482.4 585 651.6" class="st0"/><line x1="479" x2="513.9" y1="552.9" y2="552.9" class="st0"/><polyline points="585 530.3 608 530.3 608 567.6 619.1 567.6" class="st0"/><line x1="519.4" x2="519.4" y1="486.2" y2="624.9" class="st0"/><line x1="525.5" x2="525.5" y1="486.2" y2="624.9" class="st0"/><line x1="531.6" x2="531.6" y1="486.2" y2="625.1" class="st0"/><line x1="537.7" x2="537.7" y1="486.2" y2="631.8" class="st0"/><line x1="543.8" x2="543.8" y1="650.6" y2="665.1" class="st0"/><line x1="543.8" x2="543.8" y1="486.2" y2="638.8" class="st0"/><line x1="549.9" x2="549.9" y1="486.2" y2="658.2" class="st0"/><line x1="556" x2="556" y1="486.2" y2="652" class="st0"/><line x1="562.2" x2="562.2" y1="486.2" y2="654.1" class="st0"/><line x1="568.3" x2="568.3" y1="486.2" y2="660.1" class="st0"/><line x1="574.4" x2="574.4" y1="486.2" y2="665.9" class="st0"/><line x1="580.5" x2="580.5" y1="486.2" y2="656.4" class="st0"/><rect width="24.4" height="5.2" x="479" y="557.8" class="st0"/><rect width="24.4" height="5.2" x="479" y="566.2" class="st0"/><rect width="24.4" height="5.2" x="479" y="574.6" class="st0"/><rect width="24.4" height="5.2" x="479" y="583" class="st0"/><rect width="24.4" height="5.2" x="479" y="591.5" class="st0"/><rect width="24.4" height="5.2" x="479" y="599.9" class="st0"/><rect width="24.4" height="5.2" x="479" y="608.3" class="st0"/><rect width="24.4" height="5.2" x="479" y="616.7" class="st0"/><g><line x1="322.2" x2="341.3" y1="427.2" y2="427.2" class="st0"/><line x1="322.2" x2="341.3" y1="432.8" y2="432.8" class="st0"/><line x1="322.2" x2="341.3" y1="438.4" y2="438.4" class="st0"/><line x1="322.2" x2="341.3" y1="444" y2="444" class="st0"/><line x1="322.2" x2="341.3" y1="449.7" y2="449.7" class="st0"/><line x1="322.2" x2="341.3" y1="455.3" y2="455.3" class="st0"/><line x1="322.2" x2="341.3" y1="460.9" y2="460.9" class="st0"/><line x1="322.2" x2="341.3" y1="466.5" y2="466.5" class="st0"/><line x1="322.2" x2="341.3" y1="472.1" y2="472.1" class="st0"/><line x1="322.2" x2="341.3" y1="477.7" y2="477.7" class="st0"/><line x1="322.2" x2="341.3" y1="483.3" y2="483.3" class="st0"/><line x1="322.2" x2="341.3" y1="488.9" y2="488.9" class="st0"/><line x1="322.2" x2="341.3" y1="494.5" y2="494.5" class="st0"/><line x1="322.2" x2="341.3" y1="500.1" y2="500.1" class="st0"/><line x1="322.2" x2="341.3" y1="505.7" y2="505.7" class="st0"/><line x1="322.2" x2="341.3" y1="511.3" y2="511.3" class="st0"/><line x1="322.2" x2="341.3" y1="516.9" y2="516.9" class="st0"/><line x1="322.2" x2="341.3" y1="522.5" y2="522.5" class="st0"/><line x1="322.2" x2="341.3" y1="528.1" y2="528.1" class="st0"/><line x1="331.1" x2="341.3" y1="533.7" y2="533.7" class="st0"/><line x1="331.1" x2="341.3" y1="539.3" y2="539.3" class="st0"/><line x1="331.1" x2="341.3" y1="544.9" y2="544.9" class="st0"/></g><line x1="541.4" x2="710.3" y1="710" y2="710" class="st0"/><g><path d="M185.8,158.1c-10.9,0-19.8,8.9-19.8,19.8c0,2.2,0.4,4.3,1,6.3c-3.5,0.2-6.3,3.2-6.3,6.7c0,3.7,3,6.8,6.8,6.8 h18.3H202c4.1,0,7.7-2,9.8-5.2h8.5c3.7,0,6.8-3,6.8-6.8c0-3.7-3-6.8-6.8-6.8h-8.5c-1.6-2.3-3.9-3.9-6.5-4.7 C203.6,165.1,195.5,158.1,185.8,158.1L185.8,158.1z" class="st0"/></g><g><path d="M55,18.1c-10.3,0-18.6,8.3-18.6,18.6S44.7,55.3,55,55.3S73.6,47,73.6,36.7C73.5,26.4,65.2,18.1,55,18.1 L55,18.1z" class="st0"/></g><g><line x1="49.3" x2="46.1" y1="15.4" y2="3.6" class="st0"/></g><g><line x1="37.7" x2="28.1" y1="19.4" y2="9.8" class="st0"/></g><g><line x1="33.8" x2="21.9" y1="31" y2="27.8" class="st0"/></g><g><line x1="31.4" x2="18.3" y1="42.9" y2="46.5" class="st0"/></g><g><line x1="39.4" x2="30.8" y1="52.2" y2="60.8" class="st0"/></g><g><line x1="48.7" x2="45.1" y1="60.1" y2="73.3" class="st0"/></g><g><line x1="60.6" x2="63.8" y1="57.8" y2="69.7" class="st0"/></g><g><line x1="72.2" x2="81.8" y1="53.8" y2="63.5" class="st0"/></g><g><line x1="76.1" x2="88" y1="42.3" y2="45.5" class="st0"/></g><g><line x1="78.5" x2="91.6" y1="30.3" y2="26.8" class="st0"/></g><g><line x1="70.5" x2="79.1" y1="21.1" y2="12.4" class="st0"/></g><g><line x1="61.3" x2="64.8" y1="13.1" y2="0" class="st0"/></g></svg>