<svg xmlns="http://www.w3.org/2000/svg" xmlns:xlink="http://www.w3.org/1999/xlink" id="Layer_2" x="0" y="0" version="1.1" viewBox="0 0 710 710" xml:space="preserve" style="enable-background:new 0 0 710 710"><style type="text/css">.st0{fill:none;stroke:#4f4f4f;stroke-miterlimit:10}</style><g><polygon points="109.7 480.2 109.7 425.9 103.5 425.9 103.5 398.8 99.5 398.8 99.5 386.4 22.5 386.4 22.5 398.8 18.3 398.8 18.3 425.9 13.3 425.9 13.3 480.2 .9 480.2 .9 709.1 120.6 709.1 120.6 480.2" class="st0"/><rect width="66.4" height="10.9" x="28" y="375.5" class="st0"/><rect width="56.1" height="15.5" x="33.3" y="360" class="st0"/><g><rect width="6.9" height="10.3" x="29.8" y="407.1" class="st0"/><rect width="6.9" height="10.3" x="40.8" y="407.1" class="st0"/><rect width="6.9" height="10.3" x="51.8" y="407.1" class="st0"/><rect width="6.9" height="10.3" x="62.8" y="407.1" class="st0"/><rect width="6.9" height="10.3" x="73.8" y="407.1" class="st0"/><rect width="6.9" height="10.3" x="84.8" y="407.1" class="st0"/></g><g><rect width="6.9" height="10.3" x="29.8" y="431.8" class="st0"/><rect width="6.9" height="10.3" x="40.8" y="431.8" class="st0"/><rect width="6.9" height="10.3" x="51.8" y="431.8" class="st0"/><rect width="6.9" height="10.3" x="62.8" y="431.8" class="st0"/><rect width="6.9" height="10.3" x="73.8" y="431.8" class="st0"/><rect width="6.9" height="10.3" x="84.8" y="431.8" class="st0"/></g><g><rect width="6.9" height="10.3" x="29.8" y="448.8" class="st0"/><rect width="6.9" height="10.3" x="40.8" y="448.8" class="st0"/><rect width="6.9" height="10.3" x="51.8" y="448.8" class="st0"/><rect width="6.9" height="10.3" x="62.8" y="448.8" class="st0"/><rect width="6.9" height="10.3" x="73.8" y="448.8" class="st0"/><rect width="6.9" height="10.3" x="84.8" y="448.8" class="st0"/></g><g><rect width="6.9" height="10.3" x="29.8" y="465.4" class="st0"/><rect width="6.9" height="10.3" x="40.8" y="465.4" class="st0"/><rect width="6.9" height="10.3" x="51.8" y="465.4" class="st0"/><rect width="6.9" height="10.3" x="62.8" y="465.4" class="st0"/><rect width="6.9" height="10.3" x="73.8" y="465.4" class="st0"/><rect width="6.9" height="10.3" x="84.8" y="465.4" class="st0"/></g><g><g><rect width="6.9" height="10.3" x="29.7" y="491.1" class="st0"/><rect width="6.9" height="10.3" x="18.5" y="491.1" class="st0"/><rect width="6.9" height="10.3" x="7.4" y="491.1" class="st0"/><rect width="6.9" height="10.3" x="40.8" y="491.1" class="st0"/><rect width="6.9" height="10.3" x="52" y="491.1" class="st0"/><rect width="6.9" height="10.3" x="63.2" y="491.1" class="st0"/><rect width="6.9" height="10.3" x="74.3" y="491.1" class="st0"/><rect width="6.9" height="10.3" x="85.5" y="491.1" class="st0"/><rect width="6.9" height="10.3" x="96.7" y="491.1" class="st0"/><rect width="6.9" height="10.3" x="107.8" y="491.1" class="st0"/></g><g><rect width="6.9" height="10.3" x="29.7" y="512.1" class="st0"/><rect width="6.9" height="10.3" x="18.5" y="512.1" class="st0"/><rect width="6.9" height="10.3" x="7.4" y="512.1" class="st0"/><rect width="6.9" height="10.3" x="40.8" y="512.1" class="st0"/><rect width="6.9" height="10.3" x="52" y="512.1" class="st0"/><rect width="6.9" height="10.3" x="63.2" y="512.1" class="st0"/><rect width="6.9" height="10.3" x="74.3" y="512.1" class="st0"/><rect width="6.9" height="10.3" x="85.5" y="512.1" class="st0"/><rect width="6.9" height="10.3" x="96.7" y="512.1" class="st0"/><rect width="6.9" height="10.3" x="107.8" y="512.1" class="st0"/></g><g><rect width="6.9" height="10.3" x="29.7" y="533.2" class="st0"/><rect width="6.9" height="10.3" x="18.5" y="533.2" class="st0"/><rect width="6.9" height="10.3" x="7.4" y="533.2" class="st0"/><rect width="6.9" height="10.3" x="40.8" y="533.2" class="st0"/><rect width="6.9" height="10.3" x="52" y="533.2" class="st0"/><rect width="6.9" height="10.3" x="63.2" y="533.2" class="st0"/><rect width="6.9" height="10.3" x="74.3" y="533.2" class="st0"/><rect width="6.9" height="10.3" x="85.5" y="533.2" class="st0"/><rect width="6.9" height="10.3" x="96.7" y="533.2" class="st0"/><rect width="6.9" height="10.3" x="107.8" y="533.2" class="st0"/></g><g><rect width="6.9" height="10.3" x="29.7" y="554.2" class="st0"/><rect width="6.9" height="10.3" x="18.5" y="554.2" class="st0"/><rect width="6.9" height="10.3" x="7.4" y="554.2" class="st0"/><rect width="6.9" height="10.3" x="40.8" y="554.2" class="st0"/><rect width="6.9" height="10.3" x="52" y="554.2" class="st0"/><rect width="6.9" height="10.3" x="63.2" y="554.2" class="st0"/><rect width="6.9" height="10.3" x="74.3" y="554.2" class="st0"/><rect width="6.9" height="10.3" x="85.5" y="554.2" class="st0"/><rect width="6.9" height="10.3" x="96.7" y="554.2" class="st0"/><rect width="6.9" height="10.3" x="107.8" y="554.2" class="st0"/></g><g><rect width="6.9" height="10.3" x="29.7" y="575.2" class="st0"/><rect width="6.9" height="10.3" x="18.5" y="575.2" class="st0"/><rect width="6.9" height="10.3" x="7.4" y="575.2" class="st0"/><rect width="6.9" height="10.3" x="40.8" y="575.2" class="st0"/><rect width="6.9" height="10.3" x="52" y="575.2" class="st0"/><rect width="6.9" height="10.3" x="63.2" y="575.2" class="st0"/><rect width="6.9" height="10.3" x="74.3" y="575.2" class="st0"/><rect width="6.9" height="10.3" x="85.5" y="575.2" class="st0"/><rect width="6.9" height="10.3" x="96.7" y="575.2" class="st0"/><rect width="6.9" height="10.3" x="107.8" y="575.2" class="st0"/></g><g><rect width="6.9" height="10.3" x="29.7" y="596.3" class="st0"/><rect width="6.9" height="10.3" x="18.5" y="596.3" class="st0"/><rect width="6.9" height="10.3" x="7.4" y="596.3" class="st0"/><rect width="6.9" height="10.3" x="40.8" y="596.3" class="st0"/><rect width="6.9" height="10.3" x="52" y="596.3" class="st0"/><rect width="6.9" height="10.3" x="63.2" y="596.3" class="st0"/><rect width="6.9" height="10.3" x="74.3" y="596.3" class="st0"/><rect width="6.9" height="10.3" x="85.5" y="596.3" class="st0"/><rect width="6.9" height="10.3" x="96.7" y="596.3" class="st0"/><rect width="6.9" height="10.3" x="107.8" y="596.3" class="st0"/></g><g><rect width="6.9" height="10.3" x="29.7" y="617.3" class="st0"/><rect width="6.9" height="10.3" x="18.5" y="617.3" class="st0"/><rect width="6.9" height="10.3" x="7.4" y="617.3" class="st0"/><rect width="6.9" height="10.3" x="40.8" y="617.3" class="st0"/><rect width="6.9" height="10.3" x="52" y="617.3" class="st0"/><rect width="6.9" height="10.3" x="63.2" y="617.3" class="st0"/><rect width="6.9" height="10.3" x="74.3" y="617.3" class="st0"/><rect width="6.9" height="10.3" x="85.5" y="617.3" class="st0"/><rect width="6.9" height="10.3" x="96.7" y="617.3" class="st0"/><rect width="6.9" height="10.3" x="107.8" y="617.3" class="st0"/></g><g><rect width="6.9" height="10.3" x="29.7" y="638.3" class="st0"/><rect width="6.9" height="10.3" x="18.5" y="638.3" class="st0"/><rect width="6.9" height="10.3" x="7.4" y="638.3" class="st0"/><rect width="6.9" height="10.3" x="40.8" y="638.3" class="st0"/><rect width="6.9" height="10.3" x="52" y="638.3" class="st0"/><rect width="6.9" height="10.3" x="63.2" y="638.3" class="st0"/><rect width="6.9" height="10.3" x="74.3" y="638.3" class="st0"/><rect width="6.9" height="10.3" x="85.5" y="638.3" class="st0"/><rect width="6.9" height="10.3" x="96.7" y="638.3" class="st0"/><rect width="6.9" height="10.3" x="107.8" y="638.3" class="st0"/></g><g><rect width="6.9" height="10.3" x="29.7" y="659.4" class="st0"/><rect width="6.9" height="10.3" x="18.5" y="659.4" class="st0"/><rect width="6.9" height="10.3" x="7.4" y="659.4" class="st0"/><rect width="6.9" height="10.3" x="40.8" y="659.4" class="st0"/><rect width="6.9" height="10.3" x="52" y="659.4" class="st0"/><rect width="6.9" height="10.3" x="63.2" y="659.4" class="st0"/><rect width="6.9" height="10.3" x="74.3" y="659.4" class="st0"/><rect width="6.9" height="10.3" x="85.5" y="659.4" class="st0"/><rect width="6.9" height="10.3" x="96.7" y="659.4" class="st0"/><rect width="6.9" height="10.3" x="107.8" y="659.4" class="st0"/></g><g><rect width="6.9" height="10.3" x="29.7" y="680.4" class="st0"/><rect width="6.9" height="10.3" x="18.5" y="680.4" class="st0"/><rect width="6.9" height="10.3" x="7.4" y="680.4" class="st0"/><rect width="6.9" height="10.3" x="40.8" y="680.4" class="st0"/><rect width="6.9" height="10.3" x="52" y="680.4" class="st0"/><rect width="6.9" height="10.3" x="63.2" y="680.4" class="st0"/><rect width="6.9" height="10.3" x="74.3" y="680.4" class="st0"/><rect width="6.9" height="10.3" x="85.5" y="680.4" class="st0"/><rect width="6.9" height="10.3" x="96.7" y="680.4" class="st0"/><rect width="6.9" height="10.3" x="107.8" y="680.4" class="st0"/></g></g><line x1="13.3" x2="97.9" y1="480.2" y2="480.2" class="st0"/><line x1="18.3" x2="96" y1="425.9" y2="425.9" class="st0"/><line x1="22.5" x2="80.7" y1="398.8" y2="398.8" class="st0"/></g><line x1="208.6" x2="208.6" y1="169.4" y2="186.5" class="st0"/><line x1="211.8" x2="211.8" y1="169.4" y2="186.5" class="st0"/><g><polyline points="138.4 709.1 138.4 186.5 228.2 186.5 228.2 695.9" class="st0"/><rect width="63.7" height="17.2" x="151.5" y="169.4" class="st0"/><path d="M185.9,169.4c0,0,0-15.4,0-56.4S182.6,0,182.6,0s-3.4,72-3.4,113s0,56.4,0,56.4" class="st0"/><polygon points="228.2 633.2 138.4 633.2 182.6 189.8" class="st0"/><line x1="182.6" x2="182.6" y1="169.4" y2="186.5" class="st0"/><line x1="173.4" x2="173.4" y1="169.4" y2="186.5" class="st0"/><line x1="166.2" x2="166.2" y1="169.4" y2="186.5" class="st0"/><line x1="161.1" x2="161.1" y1="169.4" y2="186.5" class="st0"/><line x1="156.9" x2="156.9" y1="169.4" y2="186.5" class="st0"/><line x1="192.1" x2="192.1" y1="169.4" y2="186.5" class="st0"/><line x1="199.3" x2="199.3" y1="169.4" y2="186.5" class="st0"/><line x1="204.4" x2="204.4" y1="169.4" y2="186.5" class="st0"/><line x1="138.4" x2="149.2" y1="633.2" y2="709.1" class="st0"/><line x1="228.2" x2="217.4" y1="633.2" y2="709.1" class="st0"/><g><line x1="138.4" x2="228.2" y1="195.1" y2="195.1" class="st0"/><line x1="138.4" x2="228.2" y1="203.5" y2="203.5" class="st0"/><line x1="138.4" x2="228.2" y1="211.9" y2="211.9" class="st0"/><line x1="138.4" x2="228.2" y1="220.4" y2="220.4" class="st0"/><line x1="138.4" x2="228.2" y1="228.8" y2="228.8" class="st0"/><line x1="138.4" x2="228.2" y1="237.3" y2="237.3" class="st0"/><line x1="138.4" x2="228.2" y1="245.7" y2="245.7" class="st0"/><line x1="138.4" x2="228.2" y1="254.1" y2="254.1" class="st0"/><line x1="138.4" x2="228.2" y1="262.6" y2="262.6" class="st0"/><line x1="138.4" x2="228.2" y1="271" y2="271" class="st0"/><line x1="138.4" x2="228.2" y1="279.5" y2="279.5" class="st0"/><line x1="138.4" x2="228.2" y1="287.9" y2="287.9" class="st0"/><line x1="138.4" x2="228.2" y1="296.3" y2="296.3" class="st0"/><line x1="138.4" x2="228.2" y1="304.8" y2="304.8" class="st0"/><line x1="138.4" x2="228.2" y1="313.2" y2="313.2" class="st0"/><line x1="138.4" x2="228.2" y1="321.7" y2="321.7" class="st0"/><line x1="138.4" x2="228.2" y1="330.1" y2="330.1" class="st0"/><line x1="138.4" x2="228.2" y1="338.5" y2="338.5" class="st0"/><line x1="138.4" x2="228.2" y1="347" y2="347" class="st0"/><line x1="138.4" x2="228.2" y1="355.4" y2="355.4" class="st0"/><line x1="138.4" x2="228.2" y1="363.9" y2="363.9" class="st0"/><line x1="138.4" x2="228.2" y1="372.3" y2="372.3" class="st0"/><line x1="138.4" x2="228.2" y1="380.7" y2="380.7" class="st0"/><line x1="138.4" x2="228.2" y1="389.2" y2="389.2" class="st0"/><line x1="138.4" x2="228.2" y1="397.6" y2="397.6" class="st0"/><line x1="138.4" x2="228.2" y1="406.1" y2="406.1" class="st0"/><line x1="138.4" x2="228.2" y1="414.5" y2="414.5" class="st0"/><line x1="138.4" x2="228.2" y1="422.9" y2="422.9" class="st0"/><line x1="138.4" x2="228.2" y1="431.4" y2="431.4" class="st0"/><line x1="138.4" x2="228.2" y1="439.8" y2="439.8" class="st0"/><line x1="138.4" x2="228.2" y1="448.3" y2="448.3" class="st0"/><line x1="138.4" x2="228.2" y1="456.7" y2="456.7" class="st0"/><line x1="138.4" x2="228.2" y1="465.1" y2="465.1" class="st0"/><line x1="138.4" x2="228.2" y1="473.6" y2="473.6" class="st0"/><line x1="138.4" x2="228.2" y1="482" y2="482" class="st0"/><line x1="138.4" x2="228.2" y1="490.5" y2="490.5" class="st0"/><line x1="138.4" x2="228.2" y1="498.9" y2="498.9" class="st0"/><line x1="138.4" x2="228.2" y1="507.3" y2="507.3" class="st0"/><line x1="138.4" x2="228.2" y1="515.8" y2="515.8" class="st0"/><line x1="138.4" x2="228.2" y1="524.2" y2="524.2" class="st0"/><line x1="138.4" x2="228.2" y1="532.7" y2="532.7" class="st0"/><line x1="138.4" x2="228.2" y1="541.1" y2="541.1" class="st0"/><line x1="138.4" x2="228.2" y1="549.5" y2="549.5" class="st0"/><line x1="138.4" x2="228.2" y1="558" y2="558" class="st0"/><line x1="138.4" x2="228.2" y1="566.4" y2="566.4" class="st0"/><line x1="138.4" x2="228.2" y1="574.9" y2="574.9" class="st0"/><line x1="138.4" x2="228.2" y1="583.3" y2="583.3" class="st0"/><line x1="138.4" x2="228.2" y1="591.7" y2="591.7" class="st0"/><line x1="138.4" x2="228.2" y1="600.2" y2="600.2" class="st0"/><line x1="138.4" x2="228.2" y1="608.6" y2="608.6" class="st0"/><line x1="138.4" x2="228.2" y1="617.1" y2="617.1" class="st0"/><line x1="138.4" x2="228.2" y1="625.5" y2="625.5" class="st0"/></g><polyline points="179.2 117.8 153.7 169.4 153.7 186.5" class="st0"/><line x1="185.9" x2="211.5" y1="117.8" y2="169.4" class="st0"/></g><g><g><path d="M325.6,485.1l-11.1-7.7l-5,8l-4.5-3.3l-4.3-14.8l-4.8-2.4l-1.7-6.1l0.8-2l-2-6.7l1-0.6l-0.5-1.7 c0,0,0.2-0.9,0.3-2.3l8.3-0.3l-8.3-2.5c0-0.3-0.1-0.7-0.2-1l8.5-4.2l-9.2,2c-0.5-0.9-1.1-1.7-2-2.4l5.1-8.7l-7.2,7.6 c-0.9-0.3-1.8-0.5-3-0.6l-2.1-11.5l-0.5,11.6c-1,0.1-1.9,0.3-2.7,0.6l-7.5-7.5l5.5,8.7c-0.6,0.6-1.1,1.2-1.4,2l-8-0.4l-4-22.7 l0.8-7.3l-3.1-3.2l1.4-4v-1.5h2.9v-6.9h-4.3v-2.8c0,0,4.3-1.6,0-9.6l-1.2,2.6c0,0-2.5-3.8,0.3-7.8c0,0-5.5,3-4,9.8l-1.6-1.7 c0,0-1.2,3.6,1.8,6.8l0.1,2.7h-4.1v6.9h3.3l-0.6,3.8l-0.3,5.9c0,0-0.5,3,1.7,5.4c0,0-0.2,3.1,1.2,5.2l0.9,17.4l1.4,8.4l-4.9,12.7 v6.2h5.5l2,6.6l-1.1,4.3l1.1,1.1l1.6,12.5l-4.3,18.4h5.1v3.8l-3.6,9.2l3.6,12.6l-6.1,56.9l-5.7,1.9v7.1h56.2v-8.4l-3.7-3.2 l-1.6-14.5l2.7-3.6l-0.9-13.6l1.9-10.3l-2.6-25.5c0,0,7.7-1.7,7.7-17.2c0,0,8.4-1.7,8.4-9.8l-1.1-2L325.6,485.1z M276.8,441.3 c-0.1,0.8-0.2,1.5-0.2,2.3l-3.8,1.6l-0.8-2.7l-2.2-1.1l-0.3-1.9L276.8,441.3z M276.9,451.4l-1.5,2.5l-2.4-7.7l3.7-0.5 c0.2,1.3,0.5,2.2,0.5,2.2l-1.2,2.7L276.9,451.4z" class="st0"/><rect width="84.6" height="11" x="241" y="599.7" class="st0"/><path d="M277.6,444.6c0,0,3.4-5.8,9.7-4.3" class="st0"/><line x1="284.7" x2="284.7" y1="436.3" y2="440.1" class="st0"/><line x1="280.6" x2="281.9" y1="437.6" y2="440.8" class="st0"/><line x1="289.7" x2="288.6" y1="437.8" y2="440.8" class="st0"/><line x1="280.4" x2="282.4" y1="447.8" y2="447.8" class="st0"/><line x1="287.1" x2="289.1" y1="447.8" y2="447.8" class="st0"/><polyline points="286.1 451.3 284.7 452.1 283.2 451.3" class="st0"/><line x1="283.2" x2="286.1" y1="453.9" y2="453.9" class="st0"/><polyline points="278.7 452.6 282.4 457.2 285.2 457.2" class="st0"/><path d="M276.2,455.3c0,0,4.9,11.5,10.6,11.5" class="st0"/><path d="M276.2,457.5c0,0,2.4,10.5-0.8,18.1" class="st0"/><line x1="270.4" x2="258.8" y1="445.2" y2="461.6" class="st0"/><path d="M266,497.1c0,0,10.4-21,17.3-24.2l-13,24.7c0,0,7.5-11.3,13-15.2" class="st0"/><path d="M288.6,489.5c0,0-6.1,14.5-7,31.7S266,556.8,266,556.8" class="st0"/><line x1="286.8" x2="263.6" y1="530.9" y2="591.6" class="st0"/><line x1="284.5" x2="274.7" y1="548.1" y2="599.7" class="st0"/><polyline points="293.8 526.9 291.8 553.8 299.1 549.4" class="st0"/><path d="M299.1,560.6c0.5,0.5-2.5,24.5,3.2,29.3" class="st0"/><polyline points="321.1 489.5 319.8 487.7 315.1 490.1 315.1 495.4 312.1 498.7 312.7 500 305.4 511.5" class="st0"/></g><rect width="84.6" height="51.1" x="241" y="620.2" class="st0"/><rect width="93.8" height="10.8" x="236.4" y="671.3" class="st0"/><rect width="102.8" height="13.9" x="231.9" y="682" class="st0"/><rect width="127.6" height="13.2" x="219.5" y="695.9" class="st0"/><polygon points="330.6 606.1 329 610.7 237.5 610.7 235.9 606.1 233.5 606.1 233.5 610.7 233.5 620.2 333.1 620.2 333.1 610.7 333.1 606.1" class="st0"/><g><path d="M272.5,645.5h-8.9v-15.4c0-2,1.6-3.7,3.7-3.7h1.6c2,0,3.7,1.6,3.7,3.7v15.4H272.5z" class="st0"/><path d="M287.7,645.5h-8.9v-15.4c0-2,1.6-3.7,3.7-3.7h1.6c2,0,3.7,1.6,3.7,3.7v15.4H287.7z" class="st0"/><path d="M303,645.5h-8.9v-15.4c0-2,1.6-3.7,3.7-3.7h1.6c2,0,3.7,1.6,3.7,3.7v15.4H303z" class="st0"/></g><line x1="252.6" x2="252.6" y1="620.2" y2="671.3" class="st0"/><g><line x1="252.6" x2="241" y1="627.5" y2="627.5" class="st0"/><line x1="252.6" x2="241" y1="634.8" y2="634.8" class="st0"/><line x1="252.6" x2="241" y1="642.2" y2="642.2" class="st0"/><line x1="252.6" x2="241" y1="649.5" y2="649.5" class="st0"/><line x1="252.6" x2="241" y1="656.9" y2="656.9" class="st0"/><line x1="252.6" x2="241" y1="664.2" y2="664.2" class="st0"/></g><line x1="246.8" x2="246.8" y1="620.2" y2="627.5" class="st0"/><line x1="246.8" x2="246.8" y1="635.2" y2="642.6" class="st0"/><line x1="246.8" x2="246.8" y1="649.5" y2="656.8" class="st0"/><line x1="246.8" x2="246.8" y1="664.2" y2="671.5" class="st0"/><line x1="314" x2="314" y1="619.8" y2="670.9" class="st0"/><g><line x1="314" x2="325.6" y1="627.1" y2="627.1" class="st0"/><line x1="314" x2="325.6" y1="634.5" y2="634.5" class="st0"/><line x1="314" x2="325.6" y1="641.8" y2="641.8" class="st0"/><line x1="314" x2="325.6" y1="649.1" y2="649.1" class="st0"/><line x1="314" x2="325.6" y1="656.5" y2="656.5" class="st0"/><line x1="314" x2="325.6" y1="663.8" y2="663.8" class="st0"/></g><line x1="319.8" x2="319.8" y1="619.8" y2="627.1" class="st0"/><line x1="319.8" x2="319.8" y1="634.9" y2="642.2" class="st0"/><line x1="319.8" x2="319.8" y1="649.1" y2="656.5" class="st0"/><line x1="319.8" x2="319.8" y1="663.8" y2="671.1" class="st0"/></g><g><polyline points="338 695.9 338 470.5 446 470.5 446 559.2" class="st0"/><line x1="354" x2="120.6" y1="709.1" y2="709.1" class="st0"/><rect width="95.5" height="55.6" x="343.5" y="414.9" class="st0"/><rect width="84.6" height="30.3" x="348.9" y="384.6" class="st0"/><rect width="75.8" height="8.9" x="353.3" y="375.7" class="st0"/><path d="M355.9,375.7c0-14.2,15.8-25.7,35.3-25.7s35.3,11.5,35.3,25.7" class="st0"/><rect width="72.6" height="23.6" x="354.7" y="391.3" class="st0"/><polygon points="400.1 559 454.1 559 454.1 708.9 354 709.1 354 649.5 373.5 649.5 373.5 608.1 400.1 607.9" class="st0"/><g><line x1="360.8" x2="365.9" y1="397.7" y2="397.7" class="st0"/><line x1="369.9" x2="375" y1="397.7" y2="397.7" class="st0"/><line x1="379" x2="384.1" y1="397.7" y2="397.7" class="st0"/><line x1="388.1" x2="393.2" y1="397.7" y2="397.7" class="st0"/><line x1="397.3" x2="402.3" y1="397.7" y2="397.7" class="st0"/><line x1="406.4" x2="411.4" y1="397.7" y2="397.7" class="st0"/><line x1="415.5" x2="420.5" y1="397.7" y2="397.7" class="st0"/></g><g><line x1="360.8" x2="365.9" y1="403.2" y2="403.2" class="st0"/><line x1="369.9" x2="375" y1="403.2" y2="403.2" class="st0"/><line x1="379" x2="384.1" y1="403.2" y2="403.2" class="st0"/><line x1="388.1" x2="393.2" y1="403.2" y2="403.2" class="st0"/><line x1="397.3" x2="402.3" y1="403.2" y2="403.2" class="st0"/><line x1="406.4" x2="411.4" y1="403.2" y2="403.2" class="st0"/><line x1="415.5" x2="420.5" y1="403.2" y2="403.2" class="st0"/></g><g><line x1="360.8" x2="365.9" y1="408.6" y2="408.6" class="st0"/><line x1="369.9" x2="375" y1="408.6" y2="408.6" class="st0"/><line x1="379" x2="384.1" y1="408.6" y2="408.6" class="st0"/><line x1="388.1" x2="393.2" y1="408.6" y2="408.6" class="st0"/><line x1="397.3" x2="402.3" y1="408.6" y2="408.6" class="st0"/><line x1="406.4" x2="411.4" y1="408.6" y2="408.6" class="st0"/><line x1="415.5" x2="420.5" y1="408.6" y2="408.6" class="st0"/></g><g><line x1="359.9" x2="364.9" y1="423.2" y2="423.2" class="st0"/><line x1="350.8" x2="355.9" y1="423.2" y2="423.2" class="st0"/><line x1="368.9" x2="374" y1="423.2" y2="423.2" class="st0"/><line x1="378" x2="383" y1="423.2" y2="423.2" class="st0"/><line x1="387" x2="392.1" y1="423.2" y2="423.2" class="st0"/><line x1="396.1" x2="401.1" y1="423.2" y2="423.2" class="st0"/><line x1="405.1" x2="410.2" y1="423.2" y2="423.2" class="st0"/><line x1="414.2" x2="419.2" y1="423.2" y2="423.2" class="st0"/><line x1="423.2" x2="428.3" y1="423.2" y2="423.2" class="st0"/></g><g><line x1="359.9" x2="364.9" y1="446.9" y2="446.9" class="st0"/><line x1="350.8" x2="355.9" y1="446.9" y2="446.9" class="st0"/><line x1="368.9" x2="374" y1="446.9" y2="446.9" class="st0"/><line x1="378" x2="383" y1="446.9" y2="446.9" class="st0"/><line x1="387" x2="392.1" y1="446.9" y2="446.9" class="st0"/><line x1="396.1" x2="401.1" y1="446.9" y2="446.9" class="st0"/><line x1="405.1" x2="410.2" y1="446.9" y2="446.9" class="st0"/><line x1="414.2" x2="419.2" y1="446.9" y2="446.9" class="st0"/><line x1="423.2" x2="428.3" y1="446.9" y2="446.9" class="st0"/></g><g><line x1="359.9" x2="364.9" y1="435.1" y2="435.1" class="st0"/><line x1="350.8" x2="355.9" y1="435.1" y2="435.1" class="st0"/><line x1="368.9" x2="374" y1="435.1" y2="435.1" class="st0"/><line x1="378" x2="383" y1="435.1" y2="435.1" class="st0"/><line x1="387" x2="392.1" y1="435.1" y2="435.1" class="st0"/><line x1="396.1" x2="401.1" y1="435.1" y2="435.1" class="st0"/><line x1="405.1" x2="410.2" y1="435.1" y2="435.1" class="st0"/><line x1="414.2" x2="419.2" y1="435.1" y2="435.1" class="st0"/><line x1="423.2" x2="428.3" y1="435.1" y2="435.1" class="st0"/></g><g><line x1="359.9" x2="364.9" y1="458.8" y2="458.8" class="st0"/><line x1="350.8" x2="355.9" y1="458.8" y2="458.8" class="st0"/><line x1="368.9" x2="374" y1="458.8" y2="458.8" class="st0"/><line x1="378" x2="383" y1="458.8" y2="458.8" class="st0"/><line x1="387" x2="392.1" y1="458.8" y2="458.8" class="st0"/><line x1="396.1" x2="401.1" y1="458.8" y2="458.8" class="st0"/><line x1="405.1" x2="410.2" y1="458.8" y2="458.8" class="st0"/><line x1="414.2" x2="419.2" y1="458.8" y2="458.8" class="st0"/><line x1="423.2" x2="428.3" y1="458.8" y2="458.8" class="st0"/></g><g><line x1="361" x2="366.1" y1="483.2" y2="483.2" class="st0"/><line x1="351.9" x2="357" y1="483.2" y2="483.2" class="st0"/><line x1="370" x2="375.1" y1="483.2" y2="483.2" class="st0"/><line x1="379.1" x2="384.2" y1="483.2" y2="483.2" class="st0"/><line x1="388.1" x2="393.2" y1="483.2" y2="483.2" class="st0"/><line x1="397.2" x2="402.3" y1="483.2" y2="483.2" class="st0"/><line x1="406.2" x2="411.3" y1="483.2" y2="483.2" class="st0"/><line x1="415.3" x2="420.4" y1="483.2" y2="483.2" class="st0"/><line x1="424.3" x2="429.4" y1="483.2" y2="483.2" class="st0"/></g><g><line x1="361" x2="366.1" y1="505.4" y2="505.4" class="st0"/><line x1="351.9" x2="357" y1="505.4" y2="505.4" class="st0"/><line x1="370" x2="375.1" y1="505.4" y2="505.4" class="st0"/><line x1="379.1" x2="384.2" y1="505.4" y2="505.4" class="st0"/><line x1="388.1" x2="393.2" y1="505.4" y2="505.4" class="st0"/><line x1="397.2" x2="402.3" y1="505.4" y2="505.4" class="st0"/><line x1="406.2" x2="411.3" y1="505.4" y2="505.4" class="st0"/><line x1="415.3" x2="420.4" y1="505.4" y2="505.4" class="st0"/><line x1="424.3" x2="429.4" y1="505.4" y2="505.4" class="st0"/></g><g><line x1="361" x2="366.1" y1="494.3" y2="494.3" class="st0"/><line x1="351.9" x2="357" y1="494.3" y2="494.3" class="st0"/><line x1="370" x2="375.1" y1="494.3" y2="494.3" class="st0"/><line x1="379.1" x2="384.2" y1="494.3" y2="494.3" class="st0"/><line x1="388.1" x2="393.2" y1="494.3" y2="494.3" class="st0"/><line x1="397.2" x2="402.3" y1="494.3" y2="494.3" class="st0"/><line x1="406.2" x2="411.3" y1="494.3" y2="494.3" class="st0"/><line x1="415.3" x2="420.4" y1="494.3" y2="494.3" class="st0"/><line x1="424.3" x2="429.4" y1="494.3" y2="494.3" class="st0"/></g><g><line x1="361" x2="366.1" y1="516.5" y2="516.5" class="st0"/><line x1="351.9" x2="357" y1="516.5" y2="516.5" class="st0"/><line x1="370" x2="375.1" y1="516.5" y2="516.5" class="st0"/><line x1="379.1" x2="384.2" y1="516.5" y2="516.5" class="st0"/><line x1="388.1" x2="393.2" y1="516.5" y2="516.5" class="st0"/><line x1="397.2" x2="402.3" y1="516.5" y2="516.5" class="st0"/><line x1="406.2" x2="411.3" y1="516.5" y2="516.5" class="st0"/><line x1="415.3" x2="420.4" y1="516.5" y2="516.5" class="st0"/><line x1="424.3" x2="429.4" y1="516.5" y2="516.5" class="st0"/></g><g><line x1="361" x2="366.1" y1="527.6" y2="527.6" class="st0"/><line x1="351.9" x2="357" y1="527.6" y2="527.6" class="st0"/><line x1="370" x2="375.1" y1="527.6" y2="527.6" class="st0"/><line x1="379.1" x2="384.2" y1="527.6" y2="527.6" class="st0"/><line x1="388.1" x2="393.2" y1="527.6" y2="527.6" class="st0"/><line x1="397.2" x2="402.3" y1="527.6" y2="527.6" class="st0"/><line x1="406.2" x2="411.3" y1="527.6" y2="527.6" class="st0"/><line x1="415.3" x2="420.4" y1="527.6" y2="527.6" class="st0"/><line x1="424.3" x2="429.4" y1="527.6" y2="527.6" class="st0"/></g><g><line x1="361" x2="366.1" y1="538.7" y2="538.7" class="st0"/><line x1="351.9" x2="357" y1="538.7" y2="538.7" class="st0"/><line x1="370" x2="375.1" y1="538.7" y2="538.7" class="st0"/><line x1="379.1" x2="384.2" y1="538.7" y2="538.7" class="st0"/><line x1="388.1" x2="393.2" y1="538.7" y2="538.7" class="st0"/><line x1="397.2" x2="402.3" y1="538.7" y2="538.7" class="st0"/><line x1="406.2" x2="411.3" y1="538.7" y2="538.7" class="st0"/><line x1="415.3" x2="420.4" y1="538.7" y2="538.7" class="st0"/><line x1="424.3" x2="429.4" y1="538.7" y2="538.7" class="st0"/></g><g><line x1="361" x2="366.1" y1="549.8" y2="549.8" class="st0"/><line x1="351.9" x2="357" y1="549.8" y2="549.8" class="st0"/><line x1="370" x2="375.1" y1="549.8" y2="549.8" class="st0"/><line x1="379.1" x2="384.2" y1="549.8" y2="549.8" class="st0"/><line x1="388.1" x2="393.2" y1="549.8" y2="549.8" class="st0"/><line x1="397.2" x2="402.3" y1="549.8" y2="549.8" class="st0"/><line x1="406.2" x2="411.3" y1="549.8" y2="549.8" class="st0"/><line x1="415.3" x2="420.4" y1="549.8" y2="549.8" class="st0"/><line x1="424.3" x2="429.4" y1="549.8" y2="549.8" class="st0"/></g><g><line x1="360.6" x2="365.6" y1="560.9" y2="560.9" class="st0"/><line x1="351.5" x2="356.6" y1="560.9" y2="560.9" class="st0"/><line x1="369.6" x2="374.7" y1="560.9" y2="560.9" class="st0"/><line x1="378.7" x2="383.7" y1="560.9" y2="560.9" class="st0"/><line x1="387.7" x2="392.8" y1="560.9" y2="560.9" class="st0"/></g><g><line x1="360.6" x2="365.6" y1="572" y2="572" class="st0"/><line x1="351.5" x2="356.6" y1="572" y2="572" class="st0"/><line x1="369.6" x2="374.7" y1="572" y2="572" class="st0"/><line x1="378.7" x2="383.7" y1="572" y2="572" class="st0"/><line x1="387.7" x2="392.8" y1="572" y2="572" class="st0"/></g><g><line x1="360.6" x2="365.6" y1="583" y2="583" class="st0"/><line x1="351.5" x2="356.6" y1="583" y2="583" class="st0"/><line x1="369.6" x2="374.7" y1="583" y2="583" class="st0"/><line x1="378.7" x2="383.7" y1="583" y2="583" class="st0"/><line x1="387.7" x2="392.8" y1="583" y2="583" class="st0"/></g><g><line x1="360.6" x2="365.6" y1="594.1" y2="594.1" class="st0"/><line x1="351.5" x2="356.6" y1="594.1" y2="594.1" class="st0"/><line x1="369.6" x2="374.7" y1="594.1" y2="594.1" class="st0"/><line x1="378.7" x2="383.7" y1="594.1" y2="594.1" class="st0"/><line x1="387.7" x2="392.8" y1="594.1" y2="594.1" class="st0"/></g><g><line x1="360.6" x2="365.6" y1="605.2" y2="605.2" class="st0"/><line x1="351.5" x2="356.6" y1="605.2" y2="605.2" class="st0"/></g><g><line x1="361" x2="366.1" y1="616.3" y2="616.3" class="st0"/><line x1="352" x2="357" y1="616.3" y2="616.3" class="st0"/></g><g><line x1="361" x2="366.1" y1="627.4" y2="627.4" class="st0"/><line x1="352" x2="357" y1="627.4" y2="627.4" class="st0"/></g><g><line x1="360.6" x2="365.6" y1="638.5" y2="638.5" class="st0"/><line x1="351.5" x2="356.6" y1="638.5" y2="638.5" class="st0"/></g><g><line x1="415.3" x2="420.4" y1="572" y2="572" class="st0"/><line x1="406.2" x2="411.3" y1="572" y2="572" class="st0"/><line x1="424.3" x2="429.4" y1="572" y2="572" class="st0"/><line x1="433.4" x2="438.5" y1="572" y2="572" class="st0"/><line x1="442.4" x2="447.5" y1="572" y2="572" class="st0"/></g><g><line x1="415.3" x2="420.4" y1="582.8" y2="582.8" class="st0"/><line x1="406.2" x2="411.3" y1="582.8" y2="582.8" class="st0"/><line x1="424.3" x2="429.4" y1="582.8" y2="582.8" class="st0"/><line x1="433.4" x2="438.5" y1="582.8" y2="582.8" class="st0"/><line x1="442.4" x2="447.5" y1="582.8" y2="582.8" class="st0"/></g><g><line x1="415.3" x2="420.4" y1="593.7" y2="593.7" class="st0"/><line x1="406.2" x2="411.3" y1="593.7" y2="593.7" class="st0"/><line x1="424.3" x2="429.4" y1="593.7" y2="593.7" class="st0"/><line x1="433.4" x2="438.5" y1="593.7" y2="593.7" class="st0"/><line x1="442.4" x2="447.5" y1="593.7" y2="593.7" class="st0"/></g><g><line x1="415.3" x2="420.4" y1="604.6" y2="604.6" class="st0"/><line x1="406.2" x2="411.3" y1="604.6" y2="604.6" class="st0"/><line x1="424.3" x2="429.4" y1="604.6" y2="604.6" class="st0"/><line x1="433.4" x2="438.5" y1="604.6" y2="604.6" class="st0"/><line x1="442.4" x2="447.5" y1="604.6" y2="604.6" class="st0"/></g><g><line x1="379.1" x2="384.2" y1="615.4" y2="615.4" class="st0"/><line x1="388.1" x2="393.2" y1="615.4" y2="615.4" class="st0"/><line x1="397.2" x2="402.3" y1="615.4" y2="615.4" class="st0"/><line x1="406.2" x2="411.3" y1="615.4" y2="615.4" class="st0"/><line x1="415.3" x2="420.4" y1="615.4" y2="615.4" class="st0"/><line x1="424.3" x2="429.4" y1="615.4" y2="615.4" class="st0"/><line x1="433.4" x2="438.5" y1="615.4" y2="615.4" class="st0"/><line x1="442.4" x2="447.5" y1="615.4" y2="615.4" class="st0"/></g><g><line x1="379.1" x2="384.2" y1="626.3" y2="626.3" class="st0"/><line x1="388.1" x2="393.2" y1="626.3" y2="626.3" class="st0"/><line x1="397.2" x2="402.3" y1="626.3" y2="626.3" class="st0"/><line x1="406.2" x2="411.3" y1="626.3" y2="626.3" class="st0"/><line x1="415.3" x2="420.4" y1="626.3" y2="626.3" class="st0"/><line x1="424.3" x2="429.4" y1="626.3" y2="626.3" class="st0"/><line x1="433.4" x2="438.5" y1="626.3" y2="626.3" class="st0"/><line x1="442.4" x2="447.5" y1="626.3" y2="626.3" class="st0"/></g><g><line x1="378.7" x2="383.7" y1="637.2" y2="637.2" class="st0"/><line x1="387.7" x2="392.8" y1="637.2" y2="637.2" class="st0"/><line x1="396.8" x2="401.8" y1="637.2" y2="637.2" class="st0"/><line x1="405.8" x2="410.9" y1="637.2" y2="637.2" class="st0"/><line x1="414.9" x2="419.9" y1="637.2" y2="637.2" class="st0"/><line x1="423.9" x2="429" y1="637.2" y2="637.2" class="st0"/><line x1="433" x2="438" y1="637.2" y2="637.2" class="st0"/><line x1="442" x2="447.1" y1="637.2" y2="637.2" class="st0"/></g><g><line x1="378.7" x2="383.7" y1="648" y2="648" class="st0"/><line x1="387.7" x2="392.8" y1="648" y2="648" class="st0"/><line x1="396.8" x2="401.8" y1="648" y2="648" class="st0"/><line x1="405.8" x2="410.9" y1="648" y2="648" class="st0"/><line x1="414.9" x2="419.9" y1="648" y2="648" class="st0"/><line x1="423.9" x2="429" y1="648" y2="648" class="st0"/><line x1="433" x2="438" y1="648" y2="648" class="st0"/><line x1="442" x2="447.1" y1="648" y2="648" class="st0"/></g><g><line x1="378.7" x2="383.7" y1="658.5" y2="658.5" class="st0"/><line x1="369.6" x2="374.7" y1="658.5" y2="658.5" class="st0"/><line x1="360.1" x2="365.2" y1="658.5" y2="658.5" class="st0"/><line x1="387.7" x2="392.8" y1="658.5" y2="658.5" class="st0"/><line x1="396.8" x2="401.8" y1="658.5" y2="658.5" class="st0"/><line x1="405.8" x2="410.9" y1="658.5" y2="658.5" class="st0"/><line x1="414.9" x2="419.9" y1="658.5" y2="658.5" class="st0"/><line x1="423.9" x2="429" y1="658.5" y2="658.5" class="st0"/><line x1="433" x2="438" y1="658.5" y2="658.5" class="st0"/><line x1="442" x2="447.1" y1="658.5" y2="658.5" class="st0"/></g><g><line x1="378.7" x2="383.7" y1="668.6" y2="668.6" class="st0"/><line x1="369.6" x2="374.7" y1="668.6" y2="668.6" class="st0"/><line x1="360.1" x2="365.2" y1="668.6" y2="668.6" class="st0"/><line x1="387.7" x2="392.8" y1="668.6" y2="668.6" class="st0"/><line x1="396.8" x2="401.8" y1="668.6" y2="668.6" class="st0"/><line x1="405.8" x2="410.9" y1="668.6" y2="668.6" class="st0"/><line x1="414.9" x2="419.9" y1="668.6" y2="668.6" class="st0"/><line x1="423.9" x2="429" y1="668.6" y2="668.6" class="st0"/><line x1="433" x2="438" y1="668.6" y2="668.6" class="st0"/><line x1="442" x2="447.1" y1="668.6" y2="668.6" class="st0"/></g><g><line x1="378.7" x2="383.7" y1="678.7" y2="678.7" class="st0"/><line x1="369.6" x2="374.7" y1="678.7" y2="678.7" class="st0"/><line x1="360.1" x2="365.2" y1="678.7" y2="678.7" class="st0"/><line x1="387.7" x2="392.8" y1="678.7" y2="678.7" class="st0"/><line x1="396.8" x2="401.8" y1="678.7" y2="678.7" class="st0"/><line x1="405.8" x2="410.9" y1="678.7" y2="678.7" class="st0"/><line x1="414.9" x2="419.9" y1="678.7" y2="678.7" class="st0"/><line x1="423.9" x2="429" y1="678.7" y2="678.7" class="st0"/><line x1="433" x2="438" y1="678.7" y2="678.7" class="st0"/><line x1="442" x2="447.1" y1="678.7" y2="678.7" class="st0"/></g><g><line x1="378.7" x2="383.7" y1="688.8" y2="688.8" class="st0"/><line x1="369.6" x2="374.7" y1="688.8" y2="688.8" class="st0"/><line x1="360.1" x2="365.2" y1="688.8" y2="688.8" class="st0"/><line x1="387.7" x2="392.8" y1="688.8" y2="688.8" class="st0"/><line x1="396.8" x2="401.8" y1="688.8" y2="688.8" class="st0"/><line x1="405.8" x2="410.9" y1="688.8" y2="688.8" class="st0"/><line x1="414.9" x2="419.9" y1="688.8" y2="688.8" class="st0"/><line x1="423.9" x2="429" y1="688.8" y2="688.8" class="st0"/><line x1="433" x2="438" y1="688.8" y2="688.8" class="st0"/><line x1="442" x2="447.1" y1="688.8" y2="688.8" class="st0"/></g><g><line x1="378.7" x2="383.7" y1="698.9" y2="698.9" class="st0"/><line x1="369.6" x2="374.7" y1="698.9" y2="698.9" class="st0"/><line x1="360.1" x2="365.2" y1="698.9" y2="698.9" class="st0"/><line x1="387.7" x2="392.8" y1="698.9" y2="698.9" class="st0"/><line x1="396.8" x2="401.8" y1="698.9" y2="698.9" class="st0"/><line x1="405.8" x2="410.9" y1="698.9" y2="698.9" class="st0"/><line x1="414.9" x2="419.9" y1="698.9" y2="698.9" class="st0"/><line x1="423.9" x2="429" y1="698.9" y2="698.9" class="st0"/><line x1="433" x2="438" y1="698.9" y2="698.9" class="st0"/><line x1="442" x2="447.1" y1="698.9" y2="698.9" class="st0"/></g></g><line x1="120.6" x2="138.4" y1="529.9" y2="529.9" class="st0"/><g><g><line x1="454.2" x2="539.7" y1="702.5" y2="702.5" class="st0"/><line x1="454.2" x2="539.7" y1="695.3" y2="695.3" class="st0"/><line x1="454.2" x2="539.7" y1="688" y2="688" class="st0"/><line x1="454.2" x2="539.7" y1="680.8" y2="680.8" class="st0"/><line x1="454.2" x2="539.7" y1="673.5" y2="673.5" class="st0"/><line x1="454.2" x2="539.7" y1="666.3" y2="666.3" class="st0"/><line x1="454.2" x2="539.7" y1="659" y2="659" class="st0"/><line x1="454.2" x2="539.7" y1="651.8" y2="651.8" class="st0"/><line x1="454.2" x2="539.7" y1="644.5" y2="644.5" class="st0"/><line x1="454.2" x2="539.7" y1="637.3" y2="637.3" class="st0"/><line x1="454.2" x2="539.7" y1="630" y2="630" class="st0"/><line x1="454.2" x2="539.7" y1="622.7" y2="622.7" class="st0"/><line x1="454.2" x2="539.7" y1="615.5" y2="615.5" class="st0"/><line x1="454.2" x2="539.7" y1="608.2" y2="608.2" class="st0"/><line x1="454.2" x2="539.7" y1="601" y2="601" class="st0"/><line x1="454.2" x2="539.7" y1="593.7" y2="593.7" class="st0"/><line x1="454.2" x2="539.7" y1="586.5" y2="586.5" class="st0"/><line x1="454.2" x2="539.7" y1="579.2" y2="579.2" class="st0"/><line x1="454.2" x2="539.7" y1="572" y2="572" class="st0"/><line x1="454.2" x2="539.7" y1="564.7" y2="564.7" class="st0"/><line x1="454.2" x2="539.7" y1="557.5" y2="557.5" class="st0"/><line x1="454.2" x2="539.7" y1="550.2" y2="550.2" class="st0"/><line x1="454.2" x2="539.7" y1="543" y2="543" class="st0"/><line x1="454.2" x2="539.7" y1="535.7" y2="535.7" class="st0"/><line x1="454.2" x2="539.7" y1="528.5" y2="528.5" class="st0"/><line x1="454.2" x2="539.7" y1="521.2" y2="521.2" class="st0"/><line x1="454.2" x2="539.7" y1="514" y2="514" class="st0"/><line x1="454.2" x2="539.7" y1="506.7" y2="506.7" class="st0"/><line x1="454.2" x2="539.7" y1="499.5" y2="499.5" class="st0"/><line x1="454.2" x2="539.7" y1="492.2" y2="492.2" class="st0"/><line x1="454.2" x2="539.7" y1="485" y2="485" class="st0"/><line x1="454.2" x2="539.7" y1="477.7" y2="477.7" class="st0"/><line x1="454.2" x2="539.7" y1="470.4" y2="470.4" class="st0"/><line x1="454.2" x2="539.7" y1="463.2" y2="463.2" class="st0"/><line x1="454.2" x2="539.7" y1="455.9" y2="455.9" class="st0"/><line x1="454.2" x2="539.7" y1="448.7" y2="448.7" class="st0"/><line x1="454.2" x2="539.7" y1="441.4" y2="441.4" class="st0"/><line x1="454.2" x2="539.7" y1="434.2" y2="434.2" class="st0"/><line x1="454.2" x2="539.7" y1="426.9" y2="426.9" class="st0"/><line x1="454.2" x2="539.7" y1="419.7" y2="419.7" class="st0"/><line x1="454.2" x2="539.7" y1="412.4" y2="412.4" class="st0"/><line x1="454.2" x2="539.7" y1="405.2" y2="405.2" class="st0"/><line x1="454.2" x2="539.7" y1="397.9" y2="397.9" class="st0"/><line x1="454.2" x2="539.7" y1="390.7" y2="390.7" class="st0"/><line x1="454.2" x2="539.7" y1="383.4" y2="383.4" class="st0"/><line x1="454.2" x2="539.7" y1="376.2" y2="376.2" class="st0"/><line x1="454.2" x2="539.7" y1="368.9" y2="368.9" class="st0"/><line x1="454.2" x2="539.7" y1="361.7" y2="361.7" class="st0"/><line x1="454.2" x2="539.7" y1="354.4" y2="354.4" class="st0"/><line x1="454.2" x2="539.7" y1="347.2" y2="347.2" class="st0"/><line x1="454.2" x2="539.7" y1="339.9" y2="339.9" class="st0"/><line x1="454.2" x2="539.7" y1="332.7" y2="332.7" class="st0"/></g><g><line x1="482.9" x2="539.6" y1="325.6" y2="325.6" class="st0"/><line x1="454.1" x2="474" y1="325.6" y2="325.6" class="st0"/><line x1="490" x2="539.6" y1="318.5" y2="318.5" class="st0"/><line x1="454.1" x2="465.4" y1="318.5" y2="318.5" class="st0"/><line x1="497.1" x2="539.6" y1="311.3" y2="311.3" class="st0"/><line x1="454.1" x2="459.7" y1="311.3" y2="311.3" class="st0"/><line x1="504.3" x2="539.6" y1="304.2" y2="304.2" class="st0"/><line x1="512" x2="539.6" y1="297.1" y2="297.1" class="st0"/><line x1="519" x2="539.6" y1="290" y2="290" class="st0"/><line x1="525.8" x2="539.6" y1="282.9" y2="282.9" class="st0"/><line x1="532.7" x2="539.6" y1="275.8" y2="275.8" class="st0"/></g><polygon points="454.2 708.9 454.2 305.8 515.4 244.6 539.7 268.8 539.7 709.1" class="st0"/><polyline points="539.7 268.8 478.4 330.1 454.2 305.8" class="st0"/><polyline points="527.2 256.4 465.9 317.6 465.9 709.1" class="st0"/><polyline points="486 274 510.3 298.2 510.3 709.1" class="st0"/><line x1="478.4" x2="478.4" y1="330.1" y2="709.5" class="st0"/></g><g><polyline points="651.3 591.6 704.5 591.6 704.5 709.1 549.3 709.1 549.3 591.6 602.5 591.6" class="st0"/><polyline points="602.5 591.6 561.2 591.6 561.2 543.3 602.5 543.3" class="st0"/><polyline points="651.3 543.3 692.6 543.3 692.6 591.6 651.3 591.6" class="st0"/><polyline points="646.3 330.1 654 331.1 654 374.3 641.9 374.3" class="st0"/><polyline points="612.3 374.3 599.8 374.3 599.8 331.1 607.8 330.1" class="st0"/><polyline points="663.9 520.5 678.3 520.5 678.3 543.3 651.3 543.3" class="st0"/><polyline points="612.3 374.3 589.8 374.3 589.8 520.5" class="st0"/><polyline points="651.3 591.6 651.3 520.5 664 520.5 664 374.3 641.9 374.3" class="st0"/><polyline points="602.5 543.3 575.5 543.3 575.5 520.5 602.5 520.5 602.5 675.1 651.3 675.1 651.3 591.6" class="st0"/><line x1="549.3" x2="704.5" y1="675.1" y2="675.1" class="st0"/><g><polyline points="626.9 683.2 618.3 683.2 613.9 709.1" class="st0"/><polyline points="626.9 683.2 635.5 683.2 639.9 709.1" class="st0"/></g></g><g><path d="M630.5,517.4h-7.3V335.6c0-1.7,1.3-3,3-3h1.3c1.7,0,3,1.3,3,3V517.4z" class="st0"/><path d="M618.1,517.4h-7.3V380.8c0-1.7,1.3-3,3-3h1.3c1.7,0,3,1.3,3,3V517.4z" class="st0"/><path d="M642.9,517.4h-7.3V380.8c0-1.7,1.3-3,3-3h1.3c1.7,0,3,1.3,3,3V517.4z" class="st0"/><rect width="7.3" height="152.4" x="623.3" y="522.7" class="st0"/><rect width="7.3" height="152.4" x="610.9" y="522.7" class="st0"/><rect width="7.3" height="152.4" x="635.7" y="522.7" class="st0"/></g><path d="M612.3,374.3v-37c0-8.2,6.6-14.8,14.8-14.8l0,0c8.2,0,14.8,6.6,14.8,14.8v37" class="st0"/><path d="M612.3,374.3h-5.2v-40.8c0-11.6,8.9-20.9,19.9-20.9l0,0c11,0,19.9,9.4,19.9,20.9v40.8h-5.2" class="st0"/><polyline points="605.7 374.3 605.7 384.5 589.8 384.5" class="st0"/><polyline points="648.1 374.3 648.1 384.5 664 384.5" class="st0"/><g><rect width="12.5" height="4.1" x="593.5" y="390.2" class="st0"/><rect width="12.5" height="4.1" x="593.5" y="399.5" class="st0"/><rect width="12.5" height="4.1" x="593.5" y="408.7" class="st0"/><rect width="12.5" height="4.1" x="593.5" y="418" class="st0"/><rect width="12.5" height="4.1" x="593.5" y="427.3" class="st0"/><rect width="12.5" height="4.1" x="593.5" y="436.6" class="st0"/><rect width="12.5" height="4.1" x="593.5" y="445.9" class="st0"/><rect width="12.5" height="4.1" x="593.5" y="455.2" class="st0"/><rect width="12.5" height="4.1" x="593.5" y="464.4" class="st0"/><rect width="12.5" height="4.1" x="593.5" y="473.7" class="st0"/><rect width="12.5" height="4.1" x="593.5" y="483" class="st0"/><rect width="12.5" height="4.1" x="593.5" y="492.3" class="st0"/><rect width="12.5" height="4.1" x="593.5" y="501.6" class="st0"/><rect width="12.5" height="4.1" x="593.5" y="510.9" class="st0"/></g><g><rect width="12.5" height="4.1" x="647.7" y="390.2" class="st0"/><rect width="12.5" height="4.1" x="647.7" y="399.5" class="st0"/><rect width="12.5" height="4.1" x="647.7" y="408.7" class="st0"/><rect width="12.5" height="4.1" x="647.7" y="418" class="st0"/><rect width="12.5" height="4.1" x="647.7" y="427.3" class="st0"/><rect width="12.5" height="4.1" x="647.7" y="436.6" class="st0"/><rect width="12.5" height="4.1" x="647.7" y="445.9" class="st0"/><rect width="12.5" height="4.1" x="647.7" y="455.2" class="st0"/><rect width="12.5" height="4.1" x="647.7" y="464.4" class="st0"/><rect width="12.5" height="4.1" x="647.7" y="473.7" class="st0"/><rect width="12.5" height="4.1" x="647.7" y="483" class="st0"/><rect width="12.5" height="4.1" x="647.7" y="492.3" class="st0"/><rect width="12.5" height="4.1" x="647.7" y="501.6" class="st0"/><rect width="12.5" height="4.1" x="647.7" y="510.9" class="st0"/></g><g><rect width="12.5" height="4.1" x="581.8" y="525" class="st0"/><rect width="12.5" height="4.1" x="581.8" y="534.2" class="st0"/></g><g><rect width="12.5" height="4.1" x="658.5" y="525" class="st0"/><rect width="12.5" height="4.1" x="658.5" y="534.2" class="st0"/></g><g><rect width="29.8" height="4.1" x="566.9" y="548.7" class="st0"/><rect width="29.8" height="4.1" x="566.9" y="559.2" class="st0"/><rect width="29.8" height="4.1" x="566.9" y="569.7" class="st0"/><rect width="29.8" height="4.1" x="566.9" y="580.3" class="st0"/></g><g><rect width="29.8" height="4.1" x="657" y="548.7" class="st0"/><rect width="29.8" height="4.1" x="657" y="559.2" class="st0"/><rect width="29.8" height="4.1" x="657" y="569.7" class="st0"/><rect width="29.8" height="4.1" x="657" y="580.3" class="st0"/></g><g><rect width="41.1" height="4.1" x="555.6" y="598.9" class="st0"/><rect width="41.1" height="4.1" x="555.6" y="609.8" class="st0"/><rect width="41.1" height="4.1" x="555.6" y="620.8" class="st0"/><rect width="41.1" height="4.1" x="555.6" y="631.7" class="st0"/><rect width="41.1" height="4.1" x="555.6" y="642.6" class="st0"/><rect width="41.1" height="4.1" x="555.6" y="653.5" class="st0"/><rect width="41.1" height="4.1" x="555.6" y="664.5" class="st0"/></g><g><rect width="41.1" height="4.1" x="657" y="598.9" class="st0"/><rect width="41.1" height="4.1" x="657" y="609.8" class="st0"/><rect width="41.1" height="4.1" x="657" y="620.8" class="st0"/><rect width="41.1" height="4.1" x="657" y="631.7" class="st0"/><rect width="41.1" height="4.1" x="657" y="642.6" class="st0"/><rect width="41.1" height="4.1" x="657" y="653.5" class="st0"/><rect width="41.1" height="4.1" x="657" y="664.5" class="st0"/></g><g><path d="M645.5,325.6v-4.8c0-10.2-8.3-18.5-18.5-18.5l0,0c-10.2,0-18.5,8.3-18.5,18.5v4.8" class="st0"/><path d="M643.5,312.5v-2.7c0-9.1-7.4-16.5-16.5-16.5l0,0c-9.1,0-16.5,7.4-16.5,16.5v2.7" class="st0"/><path d="M641.9,302.9V300c0-8.2-6.6-14.8-14.8-14.8l0,0c-8.2,0-14.8,6.6-14.8,14.8v2.9" class="st0"/><path d="M637.1,289.6v-7.5c0-11.8-4.6-16-10.2-16l0,0c-5.7,0-10.2,5.2-10.2,16v7.5" class="st0"/><path d="M633.9,269.6v-4.5c0-11.8-3.1-16-7-16l0,0c-3.9,0-7,5.2-7,16v4.5" class="st0"/></g><g><polyline points="624.4 322.6 618.8 316.4 619.4 324.5" class="st0"/><polyline points="617.5 325.9 611.8 324.1 614.4 329.5" class="st0"/><polyline points="613.1 332.2 609.1 332.6 612.4 335.6" class="st0"/></g><g><polyline points="629.5 322.6 635.1 316.4 634.5 324.5" class="st0"/><polyline points="636.4 325.9 642.1 324.1 639.5 329.5" class="st0"/><polyline points="640.8 332.2 644.8 332.6 641.5 335.6" class="st0"/></g><g><polyline points="622.3 313.1 617 307.5 617.2 315.3" class="st0"/><polyline points="615.2 316.6 611.6 314.2 612.3 319.4" class="st0"/><polyline points="629.5 312.7 626.9 304.6 624.4 312.7" class="st0"/><polyline points="631.5 313.1 636.8 307.5 636.7 315.3" class="st0"/><polyline points="638.6 316.6 642.2 314.2 641.6 319.4" class="st0"/></g><g><polyline points="623 302.8 618.2 298.3 618.4 304.5" class="st0"/><polyline points="616.6 305.6 613.4 303.7 614 307.8" class="st0"/><polyline points="629.3 302.5 627.1 296 624.8 302.5" class="st0"/><polyline points="631.1 302.8 635.9 298.3 635.8 304.5" class="st0"/><polyline points="637.5 305.6 640.7 303.7 640.1 307.8" class="st0"/></g><g><polyline points="623.3 293.8 619 289.7 619.1 295.3" class="st0"/><polyline points="629.1 293.5 627.1 287.5 625 293.5" class="st0"/><polyline points="630.8 293.8 635.2 289.7 635 295.3" class="st0"/></g><polyline points="634 287.1 634 278.2 629.4 285 627 271.7 626.9 271.7 624.5 285 619.9 278.2 619.9 287.1" class="st0"/><polyline points="630.5 266.8 626.9 253.5 623.3 266.8" class="st0"/><polyline points="629.6 249.9 626.9 146.9 627 146.9 624.4 249.9" class="st0"/><line x1="664" x2="710.4" y1="467.1" y2="467.2" class="st0"/><line x1="664" x2="710.4" y1="473.7" y2="473.8" class="st0"/><line x1="664" x2="710.4" y1="503.6" y2="503.6" class="st0"/><line x1="692.6" x2="710.4" y1="545.7" y2="545.7" class="st0"/><line x1="692.6" x2="710.4" y1="587.8" y2="587.8" class="st0"/><line x1="704.5" x2="710.4" y1="629.8" y2="629.8" class="st0"/><line x1="704.5" x2="710.4" y1="671.9" y2="671.9" class="st0"/><polyline points="589.8 486.5 566.9 486.5 566.9 515 559.5 515 559.5 507.5 547.7 495.7 539.7 495.7" class="st0"/><polyline points="309 541.5 322.3 541.5 322.3 560.6 326 564.2 326 582.3 338 582.3" class="st0"/><polyline points="266.1 538.6 252.2 538.6 252.2 561.3 243.9 561.3 243.9 513.3 228.7 513.3" class="st0"/><polyline points="524.6 709.1 710.4 709.1 710.4 709 710.4 467.1" class="st0"/><g><circle cx="538.9" cy="134.4" r="11.1" class="st0"/><path d="M498,123.2h-23.9c-3.1-14.8-16.2-25.8-31.9-25.8c-15.9,0-29.2,11.5-32,26.6c-7.4,2.1-13,8.5-14.1,16.3h-9.7 c-6.1,0-11.1,5-11.1,11.1s5,11.1,11.1,11.1h29.1h1h52.2c10,0,18.2-7.4,19.5-17h9.7c6.1,0,11.1-5,11.1-11.1 C509.2,128.2,504.2,123.2,498,123.2z" class="st0"/><circle cx="375.4" cy="115.8" r="7.4" class="st0"/><circle cx="509.2" cy="97.4" r="7.4" class="st0"/></g></svg>